<svg xmlns="http://www.w3.org/2000/svg" width="375" viewBox="0 0 375 375" height="375" version="1.0"><defs><clipPath id="a"><path d="M 99 0 L 276.316406 0 L 276.316406 259.5 L 99 259.5 Z M 99 0"/></clipPath><clipPath id="b"><path d="M 204 0 L 276.316406 0 L 276.316406 27 L 204 27 Z M 204 0"/></clipPath><clipPath id="c"><path d="M 166 208 L 209 208 L 209 259.5 L 166 259.5 Z M 166 208"/></clipPath></defs><g><g><g><path d="M 14.140625 -78.140625 C 14.378906 -77.984375 14.578125 -77.785156 14.734375 -77.546875 C 14.898438 -77.304688 15.019531 -77.023438 15.09375 -76.703125 C 15.175781 -76.390625 15.257812 -75.992188 15.34375 -75.515625 C 15.34375 -75.035156 15.382812 -74.472656 15.46875 -73.828125 C 15.46875 -73.429688 15.503906 -73.070312 15.578125 -72.75 L 15.578125 -71.671875 C 15.578125 -71.515625 15.617188 -71.4375 15.703125 -71.4375 L 15.703125 -70.84375 C 15.785156 -70.84375 15.828125 -70.800781 15.828125 -70.71875 L 15.828125 -70.359375 C 15.828125 -70.191406 15.863281 -69.953125 15.9375 -69.640625 L 15.9375 -68.671875 C 16.019531 -68.035156 16.101562 -67.316406 16.1875 -66.515625 C 16.1875 -65.722656 16.222656 -64.925781 16.296875 -64.125 C 16.378906 -62.289062 16.539062 -60.253906 16.78125 -58.015625 C 17.019531 -55.773438 17.300781 -53.65625 17.625 -51.65625 C 17.695312 -50.78125 17.773438 -49.660156 17.859375 -48.296875 C 18.015625 -46.941406 18.09375 -45.625 18.09375 -44.34375 C 18.175781 -43.3125 18.257812 -42.234375 18.34375 -41.109375 C 18.34375 -39.992188 18.378906 -38.992188 18.453125 -38.109375 C 18.535156 -37.628906 18.578125 -37.191406 18.578125 -36.796875 C 18.660156 -36.398438 18.703125 -36.082031 18.703125 -35.84375 L 18.9375 -34.640625 C 18.9375 -34.160156 18.976562 -32.800781 19.0625 -30.5625 C 19.132812 -29.445312 19.210938 -28.171875 19.296875 -26.734375 C 19.378906 -25.210938 19.457031 -23.972656 19.53125 -23.015625 C 19.851562 -17.742188 20.175781 -13.828125 20.5 -11.265625 C 20.738281 -8.710938 21.097656 -6.835938 21.578125 -5.640625 C 21.648438 -5.398438 21.726562 -5 21.8125 -4.4375 C 21.96875 -3.957031 22.046875 -3.476562 22.046875 -3 L 22.046875 -1.203125 C 21.890625 -1.035156 21.613281 -0.796875 21.21875 -0.484375 C 20.976562 -0.242188 20.738281 -0.046875 20.5 0.109375 C 20.257812 0.273438 20.019531 0.359375 19.78125 0.359375 L 19.65625 0.359375 C 19.414062 0.359375 19.21875 0.316406 19.0625 0.234375 C 18.820312 0.160156 18.582031 0.00390625 18.34375 -0.234375 C 18.101562 -0.398438 17.898438 -0.601562 17.734375 -0.84375 C 17.578125 -1.082031 17.457031 -1.359375 17.375 -1.671875 C 17.300781 -2.078125 17.265625 -2.554688 17.265625 -3.109375 L 17.265625 -5.390625 C 17.265625 -7.234375 17.144531 -9.191406 16.90625 -11.265625 C 16.664062 -13.421875 16.425781 -16.5 16.1875 -20.5 C 16.101562 -21.21875 16.0625 -21.734375 16.0625 -22.046875 C 15.976562 -22.453125 15.9375 -22.691406 15.9375 -22.765625 C 15.457031 -22.847656 14.5 -22.691406 13.0625 -22.296875 C 11.539062 -21.816406 10.703125 -21.375 10.546875 -20.96875 C 10.460938 -20.8125 10.382812 -20.492188 10.3125 -20.015625 C 10.3125 -19.617188 10.269531 -19.0625 10.1875 -18.34375 C 10.101562 -16.90625 9.941406 -14.863281 9.703125 -12.21875 C 9.460938 -9.664062 9.265625 -8.070312 9.109375 -7.4375 L 9.109375 -6.109375 C 9.109375 -5.554688 9.148438 -5.078125 9.234375 -4.671875 C 9.234375 -4.035156 9.269531 -3.515625 9.34375 -3.109375 C 9.34375 -2.710938 9.300781 -2.351562 9.21875 -2.03125 C 9.144531 -1.71875 9.03125 -1.476562 8.875 -1.3125 C 8.789062 -1.070312 8.628906 -0.832031 8.390625 -0.59375 C 8.148438 -0.351562 7.910156 -0.15625 7.671875 0 C 7.347656 0.0820312 7.066406 0.125 6.828125 0.125 C 6.585938 0.125 6.3125 0.0820312 6 0 C 5.757812 -0.15625 5.519531 -0.351562 5.28125 -0.59375 L 4.921875 -0.953125 L 4.671875 -1.4375 C 4.585938 -1.519531 4.546875 -1.679688 4.546875 -1.921875 L 4.546875 -2.390625 C 4.546875 -2.710938 4.585938 -3.113281 4.671875 -3.59375 C 4.835938 -4.070312 4.957031 -4.515625 5.03125 -4.921875 C 5.195312 -5.398438 5.554688 -7.796875 6.109375 -12.109375 C 6.671875 -16.421875 7.070312 -22.53125 7.3125 -30.4375 C 7.394531 -32.757812 7.515625 -34.957031 7.671875 -37.03125 C 7.753906 -39.03125 7.832031 -40.347656 7.90625 -40.984375 C 8.226562 -43.546875 8.429688 -45.546875 8.515625 -46.984375 C 8.585938 -48.503906 8.664062 -50.582031 8.75 -53.21875 C 8.832031 -56.09375 8.910156 -58.367188 8.984375 -60.046875 C 9.148438 -61.648438 9.429688 -63.566406 9.828125 -65.796875 C 9.910156 -66.515625 9.988281 -67.4375 10.0625 -68.5625 C 10.226562 -69.757812 10.3125 -70.796875 10.3125 -71.671875 C 10.382812 -72.953125 10.421875 -73.992188 10.421875 -74.796875 C 10.503906 -75.585938 10.625 -76.222656 10.78125 -76.703125 C 10.945312 -77.179688 11.148438 -77.582031 11.390625 -77.90625 C 11.703125 -78.144531 12.0625 -78.304688 12.46875 -78.390625 C 12.539062 -78.460938 12.660156 -78.5 12.828125 -78.5 L 13.65625 -78.5 C 13.820312 -78.425781 13.984375 -78.304688 14.140625 -78.140625 Z M 12.578125 -61 C 12.503906 -60.039062 12.425781 -58.882812 12.34375 -57.53125 C 12.257812 -56.175781 12.179688 -54.695312 12.109375 -53.09375 C 12.023438 -50.851562 11.941406 -48.773438 11.859375 -46.859375 C 11.703125 -44.867188 11.546875 -43.148438 11.390625 -41.703125 C 11.222656 -40.191406 11.097656 -38.632812 11.015625 -37.03125 C 10.941406 -35.4375 10.863281 -33.679688 10.78125 -31.765625 L 10.78125 -26.25 C 10.945312 -26.164062 11.148438 -26.125 11.390625 -26.125 C 11.941406 -26.125 12.578125 -26.164062 13.296875 -26.25 C 14.335938 -26.332031 15.140625 -26.375 15.703125 -26.375 L 15.703125 -27.921875 C 15.703125 -29.359375 15.660156 -30.640625 15.578125 -31.765625 C 15.503906 -32.960938 15.382812 -34.203125 15.21875 -35.484375 C 15.144531 -36.117188 15.066406 -37.113281 14.984375 -38.46875 C 14.898438 -39.832031 14.820312 -41.148438 14.75 -42.421875 C 14.664062 -44.585938 14.582031 -46.226562 14.5 -47.34375 C 14.425781 -48.457031 14.265625 -49.816406 14.015625 -51.421875 C 13.859375 -52.617188 13.660156 -54.296875 13.421875 -56.453125 C 13.179688 -58.523438 13.019531 -60.125 12.9375 -61.25 L 12.9375 -62.203125 C 12.863281 -62.523438 12.828125 -62.765625 12.828125 -62.921875 C 12.828125 -62.679688 12.785156 -62.40625 12.703125 -62.09375 C 12.703125 -61.769531 12.660156 -61.40625 12.578125 -61 Z M 12.578125 -61" transform="translate(78.143 350.1)"/></g></g></g><g><g><g><path d="M 24.9375 -73.59375 C 25.332031 -73.507812 25.691406 -73.347656 26.015625 -73.109375 C 26.410156 -72.867188 26.6875 -72.550781 26.84375 -72.15625 C 27.007812 -71.914062 27.09375 -71.632812 27.09375 -71.3125 C 27.164062 -71.15625 27.203125 -70.957031 27.203125 -70.71875 L 27.203125 -70.46875 C 27.128906 -70.15625 27.050781 -69.796875 26.96875 -69.390625 C 26.882812 -68.992188 26.765625 -68.554688 26.609375 -68.078125 C 26.285156 -67.359375 26.046875 -66.359375 25.890625 -65.078125 C 25.734375 -63.722656 25.535156 -61.726562 25.296875 -59.09375 C 25.128906 -57.175781 24.925781 -55.054688 24.6875 -52.734375 C 24.445312 -50.421875 24.085938 -47.707031 23.609375 -44.59375 C 23.609375 -44.03125 23.53125 -43.304688 23.375 -42.421875 C 23.289062 -41.460938 23.25 -40.625 23.25 -39.90625 C 23.164062 -39.113281 23.082031 -38.195312 23 -37.15625 C 22.925781 -36.113281 22.847656 -35.273438 22.765625 -34.640625 C 22.367188 -31.285156 21.96875 -27.566406 21.5625 -23.484375 C 21.164062 -19.410156 20.769531 -15.5 20.375 -11.75 C 20.21875 -10.550781 20.097656 -9.390625 20.015625 -8.265625 C 19.859375 -7.234375 19.738281 -6.515625 19.65625 -6.109375 C 19.5 -5.710938 19.378906 -5.273438 19.296875 -4.796875 C 19.210938 -4.316406 19.132812 -3.914062 19.0625 -3.59375 C 18.894531 -3.03125 18.769531 -2.550781 18.6875 -2.15625 C 18.613281 -1.757812 18.5 -1.441406 18.34375 -1.203125 C 18.257812 -0.960938 18.140625 -0.757812 17.984375 -0.59375 C 17.816406 -0.519531 17.65625 -0.398438 17.5 -0.234375 L 17.015625 0 C 16.859375 0.0820312 16.738281 0.125 16.65625 0.125 L 16.546875 0.125 C 16.460938 0.125 16.378906 0.0820312 16.296875 0 C 16.140625 0 15.984375 -0.0390625 15.828125 -0.125 L 15.703125 -0.234375 L 15.703125 -0.359375 C 15.546875 -0.441406 15.425781 -0.519531 15.34375 -0.59375 C 15.1875 -0.675781 15.066406 -0.796875 14.984375 -0.953125 C 14.898438 -1.191406 14.816406 -1.472656 14.734375 -1.796875 C 14.660156 -2.117188 14.582031 -2.476562 14.5 -2.875 L 14.265625 -4.078125 C 14.179688 -4.554688 14.097656 -4.875 14.015625 -5.03125 C 13.859375 -5.988281 13.660156 -7.226562 13.421875 -8.75 C 13.179688 -10.269531 12.984375 -11.664062 12.828125 -12.9375 C 12.742188 -13.65625 12.625 -14.457031 12.46875 -15.34375 C 12.300781 -16.144531 12.175781 -16.785156 12.09375 -17.265625 C 12.019531 -17.742188 11.898438 -18.421875 11.734375 -19.296875 C 11.578125 -20.171875 11.421875 -20.96875 11.265625 -21.6875 C 11.179688 -22.40625 11.019531 -23.285156 10.78125 -24.328125 C 10.625 -25.285156 10.46875 -26.125 10.3125 -26.84375 C 9.988281 -28.28125 9.664062 -30.117188 9.34375 -32.359375 C 9.03125 -34.597656 8.59375 -37.632812 8.03125 -41.46875 C 7.875 -42.75 7.710938 -44.066406 7.546875 -45.421875 C 7.304688 -46.703125 7.148438 -47.660156 7.078125 -48.296875 C 6.910156 -49.492188 6.75 -50.65625 6.59375 -51.78125 C 6.507812 -52.894531 6.347656 -54.769531 6.109375 -57.40625 C 6.109375 -57.882812 6.070312 -58.328125 6 -58.734375 C 6 -59.128906 5.957031 -59.488281 5.875 -59.8125 L 5.875 -60.640625 C 5.789062 -60.878906 5.75 -61.039062 5.75 -61.125 C 5.675781 -61.363281 5.640625 -61.722656 5.640625 -62.203125 C 5.554688 -62.609375 5.515625 -63.050781 5.515625 -63.53125 C 5.429688 -63.925781 5.347656 -64.519531 5.265625 -65.3125 C 5.191406 -66.113281 5.113281 -66.875 5.03125 -67.59375 C 4.957031 -68.15625 4.921875 -68.597656 4.921875 -68.921875 C 4.835938 -69.234375 4.796875 -69.507812 4.796875 -69.75 L 4.796875 -70.46875 L 5.03125 -70.953125 C 5.195312 -71.273438 5.4375 -71.515625 5.75 -71.671875 C 6.070312 -71.910156 6.390625 -72.03125 6.703125 -72.03125 C 7.023438 -72.03125 7.347656 -71.910156 7.671875 -71.671875 C 7.910156 -71.515625 8.109375 -71.273438 8.265625 -70.953125 L 8.515625 -70.46875 L 8.515625 -69.875 C 8.585938 -69.632812 8.625 -69.351562 8.625 -69.03125 C 8.707031 -68.789062 8.75 -68.515625 8.75 -68.203125 C 8.832031 -66.441406 8.992188 -63.765625 9.234375 -60.171875 C 9.546875 -56.648438 9.863281 -53.492188 10.1875 -50.703125 C 10.269531 -49.984375 10.550781 -47.90625 11.03125 -44.46875 C 11.582031 -41.03125 11.976562 -38.515625 12.21875 -36.921875 C 12.21875 -36.597656 12.257812 -36.078125 12.34375 -35.359375 C 12.5 -34.640625 12.617188 -33.921875 12.703125 -33.203125 C 12.785156 -32.484375 12.945312 -31.644531 13.1875 -30.6875 C 13.34375 -29.644531 13.5 -28.765625 13.65625 -28.046875 C 13.738281 -27.410156 13.898438 -26.613281 14.140625 -25.65625 C 14.304688 -24.695312 14.425781 -23.894531 14.5 -23.25 C 14.582031 -22.613281 14.703125 -21.894531 14.859375 -21.09375 C 15.023438 -20.289062 15.144531 -19.613281 15.21875 -19.0625 C 15.382812 -18.582031 15.503906 -18.0625 15.578125 -17.5 C 15.660156 -16.9375 15.742188 -16.5 15.828125 -16.1875 C 15.984375 -15.226562 16.101562 -14.347656 16.1875 -13.546875 C 16.34375 -12.660156 16.460938 -11.898438 16.546875 -11.265625 C 16.617188 -11.023438 16.65625 -10.828125 16.65625 -10.671875 C 16.738281 -10.503906 16.78125 -10.34375 16.78125 -10.1875 C 16.863281 -10.507812 16.941406 -10.988281 17.015625 -11.625 C 17.097656 -12.257812 17.179688 -13.054688 17.265625 -14.015625 C 17.578125 -17.929688 17.8125 -20.726562 17.96875 -22.40625 C 18.132812 -24.09375 18.335938 -25.894531 18.578125 -27.8125 C 18.660156 -28.925781 18.78125 -30.082031 18.9375 -31.28125 C 19.019531 -32.476562 19.097656 -33.359375 19.171875 -33.921875 C 19.253906 -34.484375 19.375 -35.398438 19.53125 -36.671875 C 19.613281 -37.867188 19.695312 -39.03125 19.78125 -40.15625 C 19.9375 -42.070312 20.09375 -43.707031 20.25 -45.0625 C 20.332031 -46.5 20.535156 -48.175781 20.859375 -50.09375 C 21.015625 -51.132812 21.253906 -53.132812 21.578125 -56.09375 C 21.816406 -59.050781 22.015625 -61.53125 22.171875 -63.53125 C 22.253906 -64.644531 22.296875 -65.5625 22.296875 -66.28125 C 22.296875 -66.914062 22.210938 -67.632812 22.046875 -68.4375 C 21.972656 -69 21.9375 -69.476562 21.9375 -69.875 L 21.9375 -71.078125 C 22.007812 -71.472656 22.128906 -71.789062 22.296875 -72.03125 C 22.367188 -72.351562 22.523438 -72.632812 22.765625 -72.875 C 23.003906 -73.113281 23.242188 -73.3125 23.484375 -73.46875 C 23.804688 -73.550781 24.085938 -73.59375 24.328125 -73.59375 Z M 24.9375 -73.59375" transform="translate(106.823 350.1)"/></g></g></g><g><g><g><path d="M 15.109375 -72.875 L 15.703125 -72.875 C 15.785156 -72.875 15.863281 -72.832031 15.9375 -72.75 C 16.175781 -72.75 16.414062 -72.671875 16.65625 -72.515625 C 16.894531 -72.429688 17.175781 -72.3125 17.5 -72.15625 C 17.738281 -72 18.015625 -71.800781 18.328125 -71.5625 C 18.648438 -71.320312 19.015625 -71 19.421875 -70.59375 C 19.972656 -70.113281 20.410156 -69.710938 20.734375 -69.390625 C 20.972656 -68.992188 21.253906 -68.476562 21.578125 -67.84375 C 21.734375 -67.4375 21.890625 -66.992188 22.046875 -66.515625 C 22.210938 -65.960938 22.332031 -65.523438 22.40625 -65.203125 C 22.488281 -65.117188 22.53125 -65 22.53125 -64.84375 C 22.53125 -64.6875 22.570312 -64.523438 22.65625 -64.359375 C 22.65625 -64.285156 22.691406 -64.207031 22.765625 -64.125 L 22.765625 -63.890625 C 22.847656 -63.804688 22.929688 -63.601562 23.015625 -63.28125 L 23.25 -62.5625 C 23.332031 -62.320312 23.410156 -62 23.484375 -61.59375 C 23.566406 -61.195312 23.648438 -60.878906 23.734375 -60.640625 C 23.816406 -60.328125 23.9375 -59.890625 24.09375 -59.328125 C 24.175781 -58.691406 24.253906 -58.132812 24.328125 -57.65625 C 24.410156 -57.175781 24.492188 -56.414062 24.578125 -55.375 C 24.734375 -54.414062 24.851562 -53.5 24.9375 -52.625 C 25.09375 -51.738281 25.210938 -50.859375 25.296875 -49.984375 C 25.453125 -49.097656 25.566406 -48.457031 25.640625 -48.0625 C 25.722656 -47.664062 25.804688 -47.226562 25.890625 -46.75 C 25.972656 -46.1875 26.015625 -45.742188 26.015625 -45.421875 C 26.015625 -45.109375 26.050781 -44.628906 26.125 -43.984375 C 26.125 -43.347656 26.164062 -42.707031 26.25 -42.0625 C 26.488281 -40.070312 26.609375 -38.117188 26.609375 -36.203125 L 26.609375 -35.234375 C 26.523438 -32.992188 26.328125 -29.597656 26.015625 -25.046875 C 25.773438 -21.691406 25.453125 -18.859375 25.046875 -16.546875 C 24.648438 -14.304688 24.128906 -12.304688 23.484375 -10.546875 C 23.003906 -9.191406 22.609375 -8.15625 22.296875 -7.4375 C 21.890625 -6.71875 21.328125 -5.835938 20.609375 -4.796875 C 20.210938 -4.234375 19.851562 -3.753906 19.53125 -3.359375 L 18.453125 -2.28125 C 18.054688 -1.957031 17.695312 -1.675781 17.375 -1.4375 C 16.976562 -1.28125 16.617188 -1.160156 16.296875 -1.078125 C 15.898438 -0.992188 15.460938 -0.953125 14.984375 -0.953125 L 14.390625 -0.953125 C 13.660156 -0.953125 13.019531 -1.070312 12.46875 -1.3125 C 11.820312 -1.550781 11.257812 -2.03125 10.78125 -2.75 C 10.226562 -3.394531 9.710938 -4.273438 9.234375 -5.390625 C 8.273438 -7.390625 7.515625 -9.628906 6.953125 -12.109375 C 6.390625 -14.660156 6.03125 -17.492188 5.875 -20.609375 C 5.789062 -21.253906 5.75 -21.894531 5.75 -22.53125 C 5.675781 -23.164062 5.640625 -23.6875 5.640625 -24.09375 C 5.398438 -26.25 5.238281 -28.84375 5.15625 -31.875 C 5.070312 -32.914062 5.03125 -33.957031 5.03125 -35 C 5.113281 -37.070312 5.195312 -39.1875 5.28125 -41.34375 C 5.351562 -45.019531 5.550781 -47.859375 5.875 -49.859375 C 6.195312 -51.941406 6.753906 -54.421875 7.546875 -57.296875 C 7.785156 -58.253906 8.066406 -59.210938 8.390625 -60.171875 C 8.628906 -61.128906 8.828125 -61.847656 8.984375 -62.328125 C 9.304688 -63.367188 9.585938 -64.367188 9.828125 -65.328125 C 10.148438 -66.285156 10.46875 -67.160156 10.78125 -67.953125 C 11.019531 -68.753906 11.257812 -69.4375 11.5 -70 C 11.738281 -70.5625 11.976562 -70.960938 12.21875 -71.203125 C 12.625 -71.753906 13.066406 -72.191406 13.546875 -72.515625 C 14.023438 -72.753906 14.546875 -72.875 15.109375 -72.875 Z M 14.984375 -67.234375 C 14.742188 -67.160156 14.582031 -67.082031 14.5 -67 C 14.34375 -66.84375 14.179688 -66.644531 14.015625 -66.40625 C 13.941406 -66.238281 13.820312 -65.957031 13.65625 -65.5625 C 13.5 -65.238281 13.34375 -64.800781 13.1875 -64.25 C 12.78125 -62.8125 12.21875 -60.929688 11.5 -58.609375 C 10.863281 -56.296875 10.304688 -54.300781 9.828125 -52.625 C 9.828125 -52.539062 9.785156 -52.335938 9.703125 -52.015625 C 9.628906 -51.773438 9.550781 -51.457031 9.46875 -51.0625 C 9.46875 -50.582031 9.425781 -50.101562 9.34375 -49.625 C 9.269531 -49.144531 9.191406 -48.625 9.109375 -48.0625 C 8.785156 -45.425781 8.585938 -42.03125 8.515625 -37.875 L 8.515625 -35.84375 C 8.515625 -32.5625 8.632812 -29.601562 8.875 -26.96875 C 8.875 -26.570312 8.910156 -25.929688 8.984375 -25.046875 C 9.066406 -24.253906 9.109375 -23.457031 9.109375 -22.65625 C 9.585938 -17.539062 10.144531 -13.703125 10.78125 -11.140625 C 11.425781 -8.503906 12.265625 -6.707031 13.296875 -5.75 C 13.703125 -5.4375 13.941406 -5.28125 14.015625 -5.28125 C 14.179688 -5.195312 14.503906 -5.15625 14.984375 -5.15625 L 15.828125 -5.15625 C 15.984375 -5.238281 16.222656 -5.398438 16.546875 -5.640625 C 17.023438 -6.035156 17.460938 -6.472656 17.859375 -6.953125 C 18.253906 -7.429688 18.613281 -7.953125 18.9375 -8.515625 C 19.414062 -9.390625 19.894531 -10.546875 20.375 -11.984375 C 20.851562 -13.503906 21.171875 -14.703125 21.328125 -15.578125 C 21.410156 -16.140625 21.53125 -16.738281 21.6875 -17.375 C 21.769531 -17.9375 21.851562 -18.378906 21.9375 -18.703125 C 22.007812 -19.179688 22.085938 -19.898438 22.171875 -20.859375 C 22.253906 -21.816406 22.375 -22.9375 22.53125 -24.21875 C 22.613281 -25.488281 22.691406 -26.882812 22.765625 -28.40625 L 23.015625 -32.953125 L 23.015625 -36.3125 C 23.015625 -37.675781 22.972656 -38.957031 22.890625 -40.15625 C 22.804688 -42.394531 22.523438 -44.832031 22.046875 -47.46875 C 21.972656 -48.101562 21.894531 -48.78125 21.8125 -49.5 C 21.8125 -50.21875 21.769531 -50.738281 21.6875 -51.0625 C 21.613281 -52.414062 21.414062 -53.851562 21.09375 -55.375 C 20.851562 -56.894531 20.570312 -58.375 20.25 -59.8125 L 19.78125 -61.734375 C 19.613281 -62.367188 19.453125 -62.96875 19.296875 -63.53125 C 19.140625 -64.007812 18.976562 -64.445312 18.8125 -64.84375 C 18.738281 -65.238281 18.617188 -65.519531 18.453125 -65.6875 C 18.054688 -66.320312 17.660156 -66.757812 17.265625 -67 C 16.785156 -67.320312 16.34375 -67.484375 15.9375 -67.484375 C 15.78125 -67.484375 15.625 -67.441406 15.46875 -67.359375 C 15.300781 -67.359375 15.140625 -67.316406 14.984375 -67.234375 Z M 16.421875 -39.90625 C 16.660156 -39.832031 16.898438 -39.710938 17.140625 -39.546875 C 17.378906 -39.472656 17.578125 -39.351562 17.734375 -39.1875 C 17.816406 -39.03125 17.898438 -38.910156 17.984375 -38.828125 C 18.054688 -38.671875 18.09375 -38.515625 18.09375 -38.359375 C 18.175781 -38.191406 18.21875 -37.988281 18.21875 -37.75 L 18.21875 -36.671875 C 18.21875 -36.191406 18.175781 -35.796875 18.09375 -35.484375 C 18.09375 -35.160156 18.054688 -34.878906 17.984375 -34.640625 C 17.898438 -34.316406 17.773438 -34.078125 17.609375 -33.921875 C 17.453125 -33.765625 17.253906 -33.601562 17.015625 -33.4375 C 16.773438 -33.28125 16.535156 -33.160156 16.296875 -33.078125 C 16.054688 -32.992188 15.78125 -32.953125 15.46875 -32.953125 C 15.300781 -33.035156 15.097656 -33.117188 14.859375 -33.203125 C 14.617188 -33.285156 14.421875 -33.363281 14.265625 -33.4375 L 14.015625 -33.4375 C 13.773438 -33.601562 13.617188 -33.722656 13.546875 -33.796875 C 13.378906 -33.878906 13.253906 -34 13.171875 -34.15625 C 13.097656 -34.320312 13.0625 -34.484375 13.0625 -34.640625 C 12.976562 -34.796875 12.9375 -35.035156 12.9375 -35.359375 L 12.9375 -38.359375 C 13.019531 -38.515625 13.0625 -38.632812 13.0625 -38.71875 C 13.144531 -38.875 13.222656 -38.988281 13.296875 -39.0625 C 13.378906 -39.144531 13.5 -39.226562 13.65625 -39.3125 C 13.820312 -39.46875 14.023438 -39.585938 14.265625 -39.671875 C 14.421875 -39.828125 14.617188 -39.90625 14.859375 -39.90625 C 15.023438 -39.988281 15.144531 -40.03125 15.21875 -40.03125 L 15.578125 -40.03125 C 15.742188 -40.03125 15.863281 -39.988281 15.9375 -39.90625 Z M 16.421875 -39.90625" transform="translate(140.417 350.1)"/></g></g></g><g><g><g><path d="M 23.375 -70.46875 C 23.375 -70.226562 23.332031 -69.988281 23.25 -69.75 C 23.164062 -69.507812 23.046875 -69.3125 22.890625 -69.15625 C 22.648438 -69 22.367188 -68.835938 22.046875 -68.671875 C 21.804688 -68.429688 21.445312 -68.234375 20.96875 -68.078125 C 19.613281 -67.515625 18.457031 -66.753906 17.5 -65.796875 C 16.457031 -64.921875 15.421875 -63.644531 14.390625 -61.96875 C 14.140625 -61.570312 13.859375 -61.007812 13.546875 -60.28125 C 13.222656 -59.488281 12.898438 -58.648438 12.578125 -57.765625 L 11.625 -55.140625 L 11.03125 -52.734375 C 11.03125 -52.492188 10.945312 -51.972656 10.78125 -51.171875 C 10.539062 -50.453125 10.34375 -49.734375 10.1875 -49.015625 C 10.03125 -48.222656 9.867188 -47.347656 9.703125 -46.390625 C 9.546875 -45.429688 9.425781 -44.628906 9.34375 -43.984375 C 9.269531 -43.429688 9.191406 -42.832031 9.109375 -42.1875 C 9.023438 -41.550781 8.945312 -41.113281 8.875 -40.875 C 8.789062 -40.394531 8.75 -39.710938 8.75 -38.828125 C 8.664062 -37.953125 8.585938 -36.273438 8.515625 -33.796875 C 8.429688 -33.160156 8.429688 -32.160156 8.515625 -30.796875 C 8.515625 -29.441406 8.550781 -28.046875 8.625 -26.609375 C 8.707031 -25.253906 8.789062 -23.9375 8.875 -22.65625 C 8.945312 -21.457031 9.023438 -20.617188 9.109375 -20.140625 C 9.191406 -19.734375 9.351562 -19.09375 9.59375 -18.21875 C 9.90625 -17.34375 10.222656 -16.421875 10.546875 -15.453125 C 10.867188 -14.492188 11.148438 -13.617188 11.390625 -12.828125 C 11.703125 -11.941406 11.941406 -11.378906 12.109375 -11.140625 C 12.265625 -10.828125 12.660156 -10.269531 13.296875 -9.46875 L 15.21875 -7.078125 C 15.863281 -6.273438 16.625 -5.671875 17.5 -5.265625 C 18.375 -4.867188 19.453125 -4.59375 20.734375 -4.4375 C 21.210938 -4.4375 21.609375 -4.394531 21.921875 -4.3125 C 22.242188 -4.226562 22.523438 -4.148438 22.765625 -4.078125 C 23.003906 -3.910156 23.203125 -3.75 23.359375 -3.59375 C 23.523438 -3.4375 23.648438 -3.238281 23.734375 -3 C 23.816406 -2.757812 23.859375 -2.519531 23.859375 -2.28125 L 23.859375 -1.671875 C 23.691406 -1.117188 23.410156 -0.722656 23.015625 -0.484375 C 22.847656 -0.398438 22.644531 -0.316406 22.40625 -0.234375 L 21.6875 0 L 20.140625 0 C 19.492188 -0.15625 18.570312 -0.472656 17.375 -0.953125 C 16.175781 -1.359375 15.21875 -1.757812 14.5 -2.15625 C 12.90625 -2.875 11.664062 -3.832031 10.78125 -5.03125 C 9.90625 -6.15625 9.226562 -7.59375 8.75 -9.34375 L 8.03125 -11.5 C 7.789062 -12.382812 7.507812 -13.265625 7.1875 -14.140625 C 6.550781 -16.222656 6.070312 -18.019531 5.75 -19.53125 C 5.507812 -21.132812 5.3125 -23.375 5.15625 -26.25 C 5 -28.25 4.921875 -29.847656 4.921875 -31.046875 L 4.921875 -31.640625 C 4.921875 -32.679688 4.957031 -33.84375 5.03125 -35.125 C 5.113281 -36.957031 5.195312 -38.394531 5.28125 -39.4375 C 5.4375 -40.46875 5.675781 -42.222656 6 -44.703125 C 6.476562 -48.460938 7.195312 -52.019531 8.15625 -55.375 C 9.113281 -58.726562 10.148438 -61.363281 11.265625 -63.28125 C 11.984375 -64.5625 12.820312 -65.757812 13.78125 -66.875 C 14.820312 -68 16.019531 -69.078125 17.375 -70.109375 C 17.9375 -70.597656 18.414062 -70.960938 18.8125 -71.203125 C 19.21875 -71.515625 19.578125 -71.753906 19.890625 -71.921875 C 20.128906 -72.078125 20.410156 -72.15625 20.734375 -72.15625 C 20.972656 -72.238281 21.210938 -72.28125 21.453125 -72.28125 C 22.015625 -72.28125 22.453125 -72.117188 22.765625 -71.796875 C 23.171875 -71.472656 23.375 -71.03125 23.375 -70.46875 Z M 23.375 -70.46875" transform="translate(174.01 350.1)"/></g></g></g><g><g><g><path d="M 15.828125 -73.46875 L 16.0625 -73.234375 C 16.21875 -73.148438 16.335938 -73.070312 16.421875 -73 L 16.65625 -72.75 C 16.820312 -72.675781 16.941406 -72.554688 17.015625 -72.390625 C 17.097656 -72.316406 17.140625 -72.238281 17.140625 -72.15625 C 17.222656 -72.070312 17.265625 -71.992188 17.265625 -71.921875 C 17.265625 -70.796875 17.34375 -69.59375 17.5 -68.3125 C 17.65625 -66.957031 17.894531 -65.320312 18.21875 -63.40625 C 18.375 -61.96875 18.53125 -60.445312 18.6875 -58.84375 C 18.851562 -57.25 18.976562 -55.773438 19.0625 -54.421875 C 19.132812 -52.816406 19.210938 -51.335938 19.296875 -49.984375 C 19.378906 -48.546875 19.457031 -47.265625 19.53125 -46.140625 C 19.695312 -45.023438 19.78125 -44.066406 19.78125 -43.265625 C 19.851562 -42.546875 19.929688 -42.066406 20.015625 -41.828125 C 20.015625 -41.503906 20.054688 -41.101562 20.140625 -40.625 C 20.140625 -40.144531 20.175781 -39.707031 20.25 -39.3125 C 20.25 -38.988281 20.289062 -38.550781 20.375 -38 C 20.375 -37.4375 20.414062 -36.957031 20.5 -36.5625 C 20.570312 -36.238281 20.609375 -35.757812 20.609375 -35.125 C 20.691406 -34.476562 20.773438 -33.914062 20.859375 -33.4375 C 21.097656 -30.476562 21.253906 -28.363281 21.328125 -27.09375 C 21.492188 -25.8125 21.613281 -24.734375 21.6875 -23.859375 C 21.851562 -22.734375 21.972656 -21.570312 22.046875 -20.375 C 22.210938 -19.09375 22.332031 -17.695312 22.40625 -16.1875 C 22.488281 -15.539062 22.566406 -14.65625 22.640625 -13.53125 C 22.722656 -12.414062 22.847656 -11.300781 23.015625 -10.1875 C 23.085938 -9.625 23.125 -9.101562 23.125 -8.625 L 23.375 -7.1875 C 23.375 -6.789062 23.410156 -6.472656 23.484375 -6.234375 L 23.484375 -5.75 C 23.566406 -5.59375 23.648438 -5.316406 23.734375 -4.921875 C 23.890625 -4.515625 24.007812 -4.113281 24.09375 -3.71875 C 24.25 -3.3125 24.367188 -2.988281 24.453125 -2.75 C 24.535156 -2.4375 24.578125 -2.195312 24.578125 -2.03125 C 24.578125 -1.789062 24.535156 -1.59375 24.453125 -1.4375 L 24.21875 -0.71875 C 23.8125 -0.15625 23.289062 0.242188 22.65625 0.484375 L 22.046875 0.484375 C 21.648438 0.484375 21.253906 0.363281 20.859375 0.125 C 20.617188 -0.0390625 20.378906 -0.242188 20.140625 -0.484375 C 19.972656 -0.640625 19.851562 -0.878906 19.78125 -1.203125 C 19.695312 -1.441406 19.613281 -1.71875 19.53125 -2.03125 C 19.53125 -2.351562 19.570312 -2.710938 19.65625 -3.109375 C 19.738281 -4.316406 19.78125 -5.554688 19.78125 -6.828125 C 19.695312 -8.191406 19.578125 -9.671875 19.421875 -11.265625 C 19.335938 -12.066406 19.253906 -12.945312 19.171875 -13.90625 C 19.097656 -14.863281 19.0625 -15.539062 19.0625 -15.9375 C 18.976562 -16.34375 18.894531 -17.023438 18.8125 -17.984375 C 18.738281 -18.941406 18.660156 -19.859375 18.578125 -20.734375 C 18.335938 -23.210938 18.175781 -24.929688 18.09375 -25.890625 C 17.9375 -26.929688 17.738281 -28.726562 17.5 -31.28125 C 17.414062 -32.957031 17.332031 -34.195312 17.25 -35 C 17.175781 -35.800781 17.097656 -36.320312 17.015625 -36.5625 C 17.015625 -36.632812 16.976562 -36.710938 16.90625 -36.796875 L 16.90625 -36.921875 C 16.820312 -36.921875 16.738281 -36.878906 16.65625 -36.796875 L 16.1875 -36.796875 C 15.863281 -36.796875 15.503906 -36.753906 15.109375 -36.671875 L 13.90625 -36.4375 C 13.5 -36.28125 13.097656 -36.160156 12.703125 -36.078125 L 11.984375 -35.71875 L 11.859375 -35.59375 L 11.75 -35.359375 C 11.75 -35.273438 11.707031 -35.15625 11.625 -35 L 11.625 -34.40625 C 11.539062 -34 11.460938 -33.4375 11.390625 -32.71875 C 11.222656 -32 11.101562 -31.28125 11.03125 -30.5625 C 10.945312 -29.925781 10.863281 -29.25 10.78125 -28.53125 C 10.707031 -27.8125 10.671875 -27.289062 10.671875 -26.96875 C 10.671875 -26.644531 10.628906 -26.164062 10.546875 -25.53125 C 10.460938 -24.8125 10.382812 -24.128906 10.3125 -23.484375 C 10.144531 -21.972656 9.984375 -20.140625 9.828125 -17.984375 C 9.585938 -15.742188 9.425781 -13.703125 9.34375 -11.859375 C 9.269531 -11.066406 9.191406 -10.226562 9.109375 -9.34375 C 9.023438 -8.46875 8.941406 -7.789062 8.859375 -7.3125 C 8.785156 -6.832031 8.75 -6.273438 8.75 -5.640625 C 8.664062 -4.992188 8.625 -4.472656 8.625 -4.078125 C 8.625 -3.515625 8.582031 -3.03125 8.5 -2.625 C 8.425781 -2.226562 8.3125 -1.910156 8.15625 -1.671875 C 7.832031 -1.191406 7.472656 -0.832031 7.078125 -0.59375 C 6.597656 -0.4375 6.15625 -0.398438 5.75 -0.484375 C 5.269531 -0.640625 4.910156 -0.914062 4.671875 -1.3125 C 4.347656 -1.632812 4.1875 -2.078125 4.1875 -2.640625 L 4.1875 -2.75 C 4.1875 -2.988281 4.226562 -3.269531 4.3125 -3.59375 C 4.394531 -3.988281 4.515625 -4.390625 4.671875 -4.796875 C 4.753906 -5.035156 4.875 -5.515625 5.03125 -6.234375 C 5.195312 -6.953125 5.316406 -7.628906 5.390625 -8.265625 C 5.472656 -8.910156 5.554688 -9.671875 5.640625 -10.546875 C 5.710938 -11.347656 5.789062 -12.023438 5.875 -12.578125 C 5.957031 -13.054688 6.035156 -13.617188 6.109375 -14.265625 C 6.109375 -14.984375 6.148438 -15.539062 6.234375 -15.9375 C 6.234375 -16.820312 6.351562 -18.34375 6.59375 -20.5 C 6.75 -22.65625 6.945312 -24.8125 7.1875 -26.96875 C 7.351562 -28.164062 7.472656 -29.285156 7.546875 -30.328125 C 7.710938 -31.359375 7.832031 -32.195312 7.90625 -32.84375 C 7.988281 -33.320312 8.066406 -33.957031 8.140625 -34.75 C 8.222656 -35.550781 8.265625 -36.273438 8.265625 -36.921875 C 8.429688 -38.359375 8.632812 -40.234375 8.875 -42.546875 C 9.113281 -44.867188 9.351562 -46.46875 9.59375 -47.34375 C 9.59375 -47.738281 9.671875 -48.257812 9.828125 -48.90625 C 9.910156 -49.625 9.988281 -50.300781 10.0625 -50.9375 C 10.226562 -51.570312 10.347656 -52.253906 10.421875 -52.984375 C 10.585938 -53.773438 10.707031 -54.410156 10.78125 -54.890625 C 10.945312 -55.367188 11.109375 -56.085938 11.265625 -57.046875 C 11.421875 -58.003906 11.539062 -58.882812 11.625 -59.6875 C 11.707031 -60.5625 11.867188 -61.640625 12.109375 -62.921875 C 12.265625 -64.203125 12.421875 -65.320312 12.578125 -66.28125 C 12.816406 -67.476562 12.976562 -68.4375 13.0625 -69.15625 C 13.144531 -69.875 13.1875 -70.4375 13.1875 -70.84375 C 13.101562 -71.15625 13.0625 -71.429688 13.0625 -71.671875 C 13.0625 -71.835938 13.101562 -72 13.1875 -72.15625 C 13.1875 -72.3125 13.265625 -72.472656 13.421875 -72.640625 L 13.78125 -73 L 14.5 -73.46875 C 14.738281 -73.550781 14.976562 -73.59375 15.21875 -73.59375 L 15.46875 -73.59375 C 15.625 -73.507812 15.742188 -73.46875 15.828125 -73.46875 Z M 14.75 -57.53125 C 14.664062 -56.65625 14.503906 -55.535156 14.265625 -54.171875 C 14.023438 -52.898438 13.820312 -51.742188 13.65625 -50.703125 C 13.414062 -49.421875 13.21875 -48.140625 13.0625 -46.859375 C 12.820312 -45.585938 12.625 -44.429688 12.46875 -43.390625 C 12.382812 -42.910156 12.34375 -42.429688 12.34375 -41.953125 C 12.257812 -41.546875 12.21875 -41.1875 12.21875 -40.875 C 12.144531 -40.707031 12.109375 -40.546875 12.109375 -40.390625 L 12.109375 -39.796875 L 13.90625 -39.796875 C 14.300781 -39.796875 14.738281 -39.832031 15.21875 -39.90625 C 15.382812 -39.988281 15.585938 -40.03125 15.828125 -40.03125 L 16.296875 -40.265625 L 16.421875 -40.265625 C 16.503906 -40.265625 16.546875 -40.304688 16.546875 -40.390625 L 16.546875 -41.46875 C 16.546875 -41.625 16.503906 -41.820312 16.421875 -42.0625 C 16.421875 -42.550781 16.378906 -43.15625 16.296875 -43.875 C 16.222656 -44.664062 16.1875 -45.382812 16.1875 -46.03125 C 16.101562 -47.46875 15.984375 -49.300781 15.828125 -51.53125 C 15.660156 -53.851562 15.5 -55.929688 15.34375 -57.765625 C 15.257812 -58.171875 15.21875 -58.492188 15.21875 -58.734375 C 15.21875 -59.046875 15.179688 -59.320312 15.109375 -59.5625 C 15.109375 -59.25 15.066406 -58.929688 14.984375 -58.609375 C 14.898438 -58.285156 14.820312 -57.925781 14.75 -57.53125 Z M 14.75 -57.53125" transform="translate(205.087 350.1)"/></g></g></g><g><g><g><path d="M 12.109375 -71.671875 C 13.222656 -70.796875 14.097656 -69.878906 14.734375 -68.921875 C 15.378906 -67.960938 16.019531 -66.5625 16.65625 -64.71875 L 17.140625 -63.28125 C 17.378906 -62.800781 17.539062 -62.441406 17.625 -62.203125 C 18.414062 -60.765625 19.132812 -58.609375 19.78125 -55.734375 C 20.414062 -52.773438 20.851562 -49.617188 21.09375 -46.265625 C 21.175781 -45.460938 21.253906 -44.222656 21.328125 -42.546875 L 21.328125 -40.625 C 21.328125 -39.507812 21.289062 -38.351562 21.21875 -37.15625 C 21.21875 -34.195312 21.132812 -31.238281 20.96875 -28.28125 C 20.894531 -25.40625 20.773438 -23.410156 20.609375 -22.296875 C 20.296875 -20.210938 19.9375 -18.453125 19.53125 -17.015625 C 19.132812 -15.503906 18.65625 -13.988281 18.09375 -12.46875 C 17.375 -10.789062 16.65625 -9.351562 15.9375 -8.15625 C 15.300781 -6.957031 14.179688 -5.359375 12.578125 -3.359375 C 12.265625 -2.878906 11.988281 -2.519531 11.75 -2.28125 C 11.582031 -2.039062 11.378906 -1.835938 11.140625 -1.671875 C 10.898438 -1.515625 10.625 -1.359375 10.3125 -1.203125 C 9.988281 -1.117188 9.585938 -1 9.109375 -0.84375 C 8.710938 -0.757812 8.351562 -0.675781 8.03125 -0.59375 L 7.078125 -0.59375 C 6.835938 -0.59375 6.597656 -0.675781 6.359375 -0.84375 C 6.117188 -0.914062 5.914062 -1.035156 5.75 -1.203125 C 5.507812 -1.441406 5.3125 -1.679688 5.15625 -1.921875 C 5.070312 -2.160156 4.992188 -2.4375 4.921875 -2.75 L 4.921875 -3.71875 C 4.992188 -4.03125 5.113281 -4.429688 5.28125 -4.921875 L 5.515625 -5.875 C 5.515625 -6.195312 5.554688 -6.71875 5.640625 -7.4375 L 5.640625 -10.3125 C 5.554688 -11.507812 5.515625 -13.1875 5.515625 -15.34375 C 5.359375 -19.019531 5.316406 -22.613281 5.390625 -26.125 C 5.390625 -29.644531 5.429688 -34.203125 5.515625 -39.796875 C 5.515625 -41.546875 5.554688 -43.222656 5.640625 -44.828125 L 5.640625 -53.578125 C 5.554688 -54.691406 5.515625 -56.609375 5.515625 -59.328125 C 5.429688 -62.046875 5.390625 -64.242188 5.390625 -65.921875 L 5.390625 -67.125 C 5.316406 -67.519531 5.28125 -67.878906 5.28125 -68.203125 L 5.28125 -69.15625 L 5.15625 -69.28125 L 5.15625 -69.640625 C 5.070312 -69.710938 5.03125 -69.789062 5.03125 -69.875 L 5.03125 -70.359375 C 4.957031 -70.679688 4.921875 -70.960938 4.921875 -71.203125 C 4.921875 -71.515625 5 -71.789062 5.15625 -72.03125 C 5.238281 -72.195312 5.398438 -72.398438 5.640625 -72.640625 C 5.796875 -72.796875 6.035156 -72.953125 6.359375 -73.109375 C 6.597656 -73.273438 6.835938 -73.394531 7.078125 -73.46875 C 7.390625 -73.550781 7.664062 -73.59375 7.90625 -73.59375 L 8.03125 -73.59375 C 8.59375 -73.59375 9.191406 -73.429688 9.828125 -73.109375 C 10.460938 -72.796875 11.222656 -72.316406 12.109375 -71.671875 Z M 9.34375 -68.921875 L 8.984375 -68.921875 C 8.910156 -68.515625 8.875 -67.875 8.875 -67 C 8.789062 -66.363281 8.789062 -65.363281 8.875 -64 C 8.875 -62.644531 8.910156 -61.285156 8.984375 -59.921875 C 9.066406 -57.367188 9.109375 -54.65625 9.109375 -51.78125 C 9.109375 -48.976562 9.03125 -43.863281 8.875 -36.4375 C 8.789062 -33.957031 8.75 -31.597656 8.75 -29.359375 L 8.75 -24.8125 C 8.75 -23.851562 8.789062 -21.816406 8.875 -18.703125 C 8.945312 -15.503906 8.984375 -13.144531 8.984375 -11.625 C 8.984375 -11.226562 9.023438 -10.707031 9.109375 -10.0625 C 9.109375 -9.425781 9.148438 -8.789062 9.234375 -8.15625 L 9.234375 -6.59375 C 9.304688 -6.4375 9.34375 -6.316406 9.34375 -6.234375 L 9.34375 -5.75 L 9.46875 -5.75 L 9.703125 -5.875 C 9.785156 -5.875 9.90625 -5.953125 10.0625 -6.109375 C 10.707031 -6.753906 11.507812 -7.753906 12.46875 -9.109375 C 13.34375 -10.546875 13.984375 -11.664062 14.390625 -12.46875 C 15.023438 -14.0625 15.582031 -15.859375 16.0625 -17.859375 C 16.625 -19.859375 17.023438 -21.816406 17.265625 -23.734375 C 17.335938 -24.535156 17.457031 -26.015625 17.625 -28.171875 C 17.695312 -30.242188 17.773438 -32.359375 17.859375 -34.515625 L 17.859375 -38.46875 C 17.941406 -38.875 17.984375 -39.234375 17.984375 -39.546875 C 17.984375 -40.265625 17.941406 -40.828125 17.859375 -41.234375 L 17.859375 -43.390625 C 17.773438 -44.191406 17.734375 -44.75 17.734375 -45.0625 C 17.660156 -45.945312 17.582031 -46.75 17.5 -47.46875 C 17.414062 -48.1875 17.296875 -49.222656 17.140625 -50.578125 C 17.054688 -51.140625 16.9375 -51.738281 16.78125 -52.375 C 16.695312 -53.019531 16.65625 -53.5 16.65625 -53.8125 C 16.5 -54.769531 16.179688 -56.007812 15.703125 -57.53125 C 15.222656 -59.050781 14.539062 -60.929688 13.65625 -63.171875 C 13.019531 -64.765625 12.503906 -65.878906 12.109375 -66.515625 C 11.785156 -67.160156 11.34375 -67.722656 10.78125 -68.203125 C 10.625 -68.359375 10.46875 -68.476562 10.3125 -68.5625 C 10.226562 -68.632812 10.109375 -68.710938 9.953125 -68.796875 C 9.867188 -68.878906 9.785156 -68.921875 9.703125 -68.921875 Z M 9.34375 -68.921875" transform="translate(236.164 350.1)"/></g></g></g><g><g><g><path d="M 15.109375 -72.875 L 15.703125 -72.875 C 15.785156 -72.875 15.863281 -72.832031 15.9375 -72.75 C 16.175781 -72.75 16.414062 -72.671875 16.65625 -72.515625 C 16.894531 -72.429688 17.175781 -72.3125 17.5 -72.15625 C 17.738281 -72 18.015625 -71.800781 18.328125 -71.5625 C 18.648438 -71.320312 19.015625 -71 19.421875 -70.59375 C 19.972656 -70.113281 20.410156 -69.710938 20.734375 -69.390625 C 20.972656 -68.992188 21.253906 -68.476562 21.578125 -67.84375 C 21.734375 -67.4375 21.890625 -66.992188 22.046875 -66.515625 C 22.210938 -65.960938 22.332031 -65.523438 22.40625 -65.203125 C 22.488281 -65.117188 22.53125 -65 22.53125 -64.84375 C 22.53125 -64.6875 22.570312 -64.523438 22.65625 -64.359375 C 22.65625 -64.285156 22.691406 -64.207031 22.765625 -64.125 L 22.765625 -63.890625 C 22.847656 -63.804688 22.929688 -63.601562 23.015625 -63.28125 L 23.25 -62.5625 C 23.332031 -62.320312 23.410156 -62 23.484375 -61.59375 C 23.566406 -61.195312 23.648438 -60.878906 23.734375 -60.640625 C 23.816406 -60.328125 23.9375 -59.890625 24.09375 -59.328125 C 24.175781 -58.691406 24.253906 -58.132812 24.328125 -57.65625 C 24.410156 -57.175781 24.492188 -56.414062 24.578125 -55.375 C 24.734375 -54.414062 24.851562 -53.5 24.9375 -52.625 C 25.09375 -51.738281 25.210938 -50.859375 25.296875 -49.984375 C 25.453125 -49.097656 25.566406 -48.457031 25.640625 -48.0625 C 25.722656 -47.664062 25.804688 -47.226562 25.890625 -46.75 C 25.972656 -46.1875 26.015625 -45.742188 26.015625 -45.421875 C 26.015625 -45.109375 26.050781 -44.628906 26.125 -43.984375 C 26.125 -43.347656 26.164062 -42.707031 26.25 -42.0625 C 26.488281 -40.070312 26.609375 -38.117188 26.609375 -36.203125 L 26.609375 -35.234375 C 26.523438 -32.992188 26.328125 -29.597656 26.015625 -25.046875 C 25.773438 -21.691406 25.453125 -18.859375 25.046875 -16.546875 C 24.648438 -14.304688 24.128906 -12.304688 23.484375 -10.546875 C 23.003906 -9.191406 22.609375 -8.15625 22.296875 -7.4375 C 21.890625 -6.71875 21.328125 -5.835938 20.609375 -4.796875 C 20.210938 -4.234375 19.851562 -3.753906 19.53125 -3.359375 L 18.453125 -2.28125 C 18.054688 -1.957031 17.695312 -1.675781 17.375 -1.4375 C 16.976562 -1.28125 16.617188 -1.160156 16.296875 -1.078125 C 15.898438 -0.992188 15.460938 -0.953125 14.984375 -0.953125 L 14.390625 -0.953125 C 13.660156 -0.953125 13.019531 -1.070312 12.46875 -1.3125 C 11.820312 -1.550781 11.257812 -2.03125 10.78125 -2.75 C 10.226562 -3.394531 9.710938 -4.273438 9.234375 -5.390625 C 8.273438 -7.390625 7.515625 -9.628906 6.953125 -12.109375 C 6.390625 -14.660156 6.03125 -17.492188 5.875 -20.609375 C 5.789062 -21.253906 5.75 -21.894531 5.75 -22.53125 C 5.675781 -23.164062 5.640625 -23.6875 5.640625 -24.09375 C 5.398438 -26.25 5.238281 -28.84375 5.15625 -31.875 C 5.070312 -32.914062 5.03125 -33.957031 5.03125 -35 C 5.113281 -37.070312 5.195312 -39.1875 5.28125 -41.34375 C 5.351562 -45.019531 5.550781 -47.859375 5.875 -49.859375 C 6.195312 -51.941406 6.753906 -54.421875 7.546875 -57.296875 C 7.785156 -58.253906 8.066406 -59.210938 8.390625 -60.171875 C 8.628906 -61.128906 8.828125 -61.847656 8.984375 -62.328125 C 9.304688 -63.367188 9.585938 -64.367188 9.828125 -65.328125 C 10.148438 -66.285156 10.46875 -67.160156 10.78125 -67.953125 C 11.019531 -68.753906 11.257812 -69.4375 11.5 -70 C 11.738281 -70.5625 11.976562 -70.960938 12.21875 -71.203125 C 12.625 -71.753906 13.066406 -72.191406 13.546875 -72.515625 C 14.023438 -72.753906 14.546875 -72.875 15.109375 -72.875 Z M 14.984375 -67.234375 C 14.742188 -67.160156 14.582031 -67.082031 14.5 -67 C 14.34375 -66.84375 14.179688 -66.644531 14.015625 -66.40625 C 13.941406 -66.238281 13.820312 -65.957031 13.65625 -65.5625 C 13.5 -65.238281 13.34375 -64.800781 13.1875 -64.25 C 12.78125 -62.8125 12.21875 -60.929688 11.5 -58.609375 C 10.863281 -56.296875 10.304688 -54.300781 9.828125 -52.625 C 9.828125 -52.539062 9.785156 -52.335938 9.703125 -52.015625 C 9.628906 -51.773438 9.550781 -51.457031 9.46875 -51.0625 C 9.46875 -50.582031 9.425781 -50.101562 9.34375 -49.625 C 9.269531 -49.144531 9.191406 -48.625 9.109375 -48.0625 C 8.785156 -45.425781 8.585938 -42.03125 8.515625 -37.875 L 8.515625 -35.84375 C 8.515625 -32.5625 8.632812 -29.601562 8.875 -26.96875 C 8.875 -26.570312 8.910156 -25.929688 8.984375 -25.046875 C 9.066406 -24.253906 9.109375 -23.457031 9.109375 -22.65625 C 9.585938 -17.539062 10.144531 -13.703125 10.78125 -11.140625 C 11.425781 -8.503906 12.265625 -6.707031 13.296875 -5.75 C 13.703125 -5.4375 13.941406 -5.28125 14.015625 -5.28125 C 14.179688 -5.195312 14.503906 -5.15625 14.984375 -5.15625 L 15.828125 -5.15625 C 15.984375 -5.238281 16.222656 -5.398438 16.546875 -5.640625 C 17.023438 -6.035156 17.460938 -6.472656 17.859375 -6.953125 C 18.253906 -7.429688 18.613281 -7.953125 18.9375 -8.515625 C 19.414062 -9.390625 19.894531 -10.546875 20.375 -11.984375 C 20.851562 -13.503906 21.171875 -14.703125 21.328125 -15.578125 C 21.410156 -16.140625 21.53125 -16.738281 21.6875 -17.375 C 21.769531 -17.9375 21.851562 -18.378906 21.9375 -18.703125 C 22.007812 -19.179688 22.085938 -19.898438 22.171875 -20.859375 C 22.253906 -21.816406 22.375 -22.9375 22.53125 -24.21875 C 22.613281 -25.488281 22.691406 -26.882812 22.765625 -28.40625 L 23.015625 -32.953125 L 23.015625 -36.3125 C 23.015625 -37.675781 22.972656 -38.957031 22.890625 -40.15625 C 22.804688 -42.394531 22.523438 -44.832031 22.046875 -47.46875 C 21.972656 -48.101562 21.894531 -48.78125 21.8125 -49.5 C 21.8125 -50.21875 21.769531 -50.738281 21.6875 -51.0625 C 21.613281 -52.414062 21.414062 -53.851562 21.09375 -55.375 C 20.851562 -56.894531 20.570312 -58.375 20.25 -59.8125 L 19.78125 -61.734375 C 19.613281 -62.367188 19.453125 -62.96875 19.296875 -63.53125 C 19.140625 -64.007812 18.976562 -64.445312 18.8125 -64.84375 C 18.738281 -65.238281 18.617188 -65.519531 18.453125 -65.6875 C 18.054688 -66.320312 17.660156 -66.757812 17.265625 -67 C 16.785156 -67.320312 16.34375 -67.484375 15.9375 -67.484375 C 15.78125 -67.484375 15.625 -67.441406 15.46875 -67.359375 C 15.300781 -67.359375 15.140625 -67.316406 14.984375 -67.234375 Z M 16.421875 -39.90625 C 16.660156 -39.832031 16.898438 -39.710938 17.140625 -39.546875 C 17.378906 -39.472656 17.578125 -39.351562 17.734375 -39.1875 C 17.816406 -39.03125 17.898438 -38.910156 17.984375 -38.828125 C 18.054688 -38.671875 18.09375 -38.515625 18.09375 -38.359375 C 18.175781 -38.191406 18.21875 -37.988281 18.21875 -37.75 L 18.21875 -36.671875 C 18.21875 -36.191406 18.175781 -35.796875 18.09375 -35.484375 C 18.09375 -35.160156 18.054688 -34.878906 17.984375 -34.640625 C 17.898438 -34.316406 17.773438 -34.078125 17.609375 -33.921875 C 17.453125 -33.765625 17.253906 -33.601562 17.015625 -33.4375 C 16.773438 -33.28125 16.535156 -33.160156 16.296875 -33.078125 C 16.054688 -32.992188 15.78125 -32.953125 15.46875 -32.953125 C 15.300781 -33.035156 15.097656 -33.117188 14.859375 -33.203125 C 14.617188 -33.285156 14.421875 -33.363281 14.265625 -33.4375 L 14.015625 -33.4375 C 13.773438 -33.601562 13.617188 -33.722656 13.546875 -33.796875 C 13.378906 -33.878906 13.253906 -34 13.171875 -34.15625 C 13.097656 -34.320312 13.0625 -34.484375 13.0625 -34.640625 C 12.976562 -34.796875 12.9375 -35.035156 12.9375 -35.359375 L 12.9375 -38.359375 C 13.019531 -38.515625 13.0625 -38.632812 13.0625 -38.71875 C 13.144531 -38.875 13.222656 -38.988281 13.296875 -39.0625 C 13.378906 -39.144531 13.5 -39.226562 13.65625 -39.3125 C 13.820312 -39.46875 14.023438 -39.585938 14.265625 -39.671875 C 14.421875 -39.828125 14.617188 -39.90625 14.859375 -39.90625 C 15.023438 -39.988281 15.144531 -40.03125 15.21875 -40.03125 L 15.578125 -40.03125 C 15.742188 -40.03125 15.863281 -39.988281 15.9375 -39.90625 Z M 16.421875 -39.90625" transform="translate(264.844 350.1)"/></g></g></g><g clip-path="url(#a)"><path fill="#8C8E2D" d="M 275.183594 21.738281 C 275.125 21.8125 275.054688 21.871094 274.96875 21.925781 L 274.953125 21.925781 C 273.875 22.789062 271.234375 23.609375 266.554688 24.519531 C 265.503906 24.71875 264.34375 24.917969 263.078125 25.136719 C 261.714844 25.367188 260.238281 25.59375 258.628906 25.839844 C 254.796875 26.414062 251.867188 26.746094 248.953125 26.804688 C 247.804688 26.832031 246.640625 26.820312 245.449219 26.761719 C 242.292969 26.601562 238.800781 26.15625 233.976562 25.421875 C 232.742188 25.234375 231.636719 25.0625 230.632812 24.890625 C 229.109375 24.648438 227.800781 24.429688 226.640625 24.199219 C 222.5625 23.410156 220.050781 22.601562 214.765625 20.703125 L 212.554688 19.914062 L 207.285156 21.453125 C 202.332031 22.917969 195.613281 24.648438 192.226562 25.308594 L 190.703125 25.625 L 194.550781 27.609375 C 198.398438 29.578125 202.5625 32.242188 205.761719 34.730469 C 207.414062 36.011719 207.585938 36.082031 209.398438 36.226562 C 210.429688 36.296875 212.628906 36.714844 214.25 37.144531 C 215.886719 37.566406 218.613281 38.210938 220.339844 38.585938 C 224.457031 39.460938 226.09375 40.023438 230.113281 41.894531 C 231.679688 42.613281 234.320312 43.804688 236.460938 44.757812 C 236.460938 44.757812 236.460938 44.757812 236.472656 44.757812 C 236.847656 44.914062 237.207031 45.085938 237.535156 45.230469 C 238.339844 45.578125 239.160156 45.949219 240.007812 46.324219 C 246.109375 49.101562 252.8125 52.507812 255.167969 54.046875 C 261.570312 58.25 264.6875 61.730469 267.761719 68.058594 C 267.84375 68.230469 267.933594 68.402344 268.003906 68.578125 C 268.507812 69.65625 268.949219 70.707031 269.324219 71.742188 C 270.933594 76.027344 271.609375 80.15625 271.507812 84.863281 C 271.496094 85.132812 271.566406 86.269531 271.652344 87.363281 C 271.851562 89.851562 271.4375 91.851562 269.539062 97.488281 C 269.28125 98.265625 269.011719 99.03125 268.710938 99.777344 C 268.335938 100.785156 267.949219 101.761719 267.515625 102.726562 C 265.074219 108.25 261.917969 113.167969 257.882812 117.699219 C 257.164062 118.507812 256.417969 119.296875 255.65625 120.074219 C 255.210938 120.519531 254.75 120.964844 254.292969 121.410156 C 251.148438 124.417969 248.851562 126.386719 247.054688 127.484375 C 245.40625 128.503906 244.183594 128.804688 243.105469 128.53125 C 242.851562 128.476562 242.589844 128.375 242.332031 128.242188 C 241.285156 127.710938 240.726562 126.402344 240.046875 122.964844 C 239.863281 122.015625 239.648438 121.066406 239.402344 120.101562 C 239.132812 118.96875 238.816406 117.816406 238.457031 116.679688 C 237.105469 112.292969 235.269531 107.976562 233.128906 104.136719 L 233.128906 104.121094 C 232.640625 103.214844 232.109375 102.335938 231.578125 101.503906 C 231.449219 101.300781 231.335938 101.117188 231.207031 100.929688 C 230.34375 99.605469 228.492188 97.046875 227.054688 95.1875 C 225.621094 93.332031 223.566406 90.671875 222.460938 89.246094 C 222.347656 89.101562 222.230469 88.960938 222.101562 88.785156 C 221.570312 88.109375 220.867188 87.261719 220.136719 86.386719 C 219.277344 85.363281 218.371094 84.3125 217.609375 83.464844 C 214.207031 79.640625 213.328125 78.472656 211.980469 75.941406 C 210.816406 73.785156 209.957031 71.742188 209.351562 69.65625 C 209.035156 68.605469 208.808594 67.527344 208.621094 66.417969 C 208.191406 63.757812 208.132812 60.878906 208.363281 57.472656 C 208.5625 54.480469 208.550781 52.867188 208.289062 50.367188 C 208.121094 48.757812 207.992188 46.292969 207.960938 44.613281 C 207.945312 44.441406 207.945312 44.265625 207.945312 44.109375 L 207.933594 41.433594 L 207.933594 41.089844 L 206.378906 40.371094 C 205.378906 39.894531 204.257812 39.046875 203.152344 37.910156 C 200.636719 35.335938 195.742188 32.800781 186.410156 29.234375 C 176.402344 25.40625 171.707031 22.949219 168.347656 19.742188 C 167.558594 18.980469 166.796875 18.417969 166.710938 18.519531 C 166.46875 18.777344 166.507812 23.234375 166.8125 27.019531 C 167.054688 30.171875 168.042969 35.75 169.136719 40.082031 C 169.726562 42.453125 170.746094 44.757812 172.554688 47.890625 L 173.890625 50.207031 L 173.902344 53.832031 L 173.917969 57.445312 L 176.605469 57.875 C 180.40625 58.492188 184.097656 59.558594 187.601562 61.054688 C 188.074219 61.242188 188.550781 61.441406 189.007812 61.671875 C 191.519531 62.824219 193.933594 64.21875 196.203125 65.816406 C 197.824219 66.964844 202.03125 70.980469 205.003906 74.117188 C 205.964844 75.105469 206.796875 76.027344 207.375 76.730469 C 207.558594 76.949219 207.730469 77.164062 207.859375 77.339844 C 212.597656 83.667969 217.105469 94.082031 218.742188 102.425781 C 219.890625 108.292969 220.261719 111.875 221.097656 125.023438 C 221.257812 127.625 221.445312 129.984375 221.640625 132.140625 C 221.757812 133.394531 221.886719 134.585938 222.015625 135.710938 L 222.015625 135.726562 C 222.863281 142.816406 224.085938 147.648438 226.109375 152.480469 C 226.152344 152.597656 226.210938 152.726562 226.28125 152.871094 C 226.511719 153.390625 226.855469 154.136719 227.289062 155.042969 C 228.277344 157.128906 229.699219 160.050781 231.105469 162.824219 C 234.910156 170.347656 236.34375 173.6875 238.285156 179.972656 C 238.441406 180.488281 238.601562 181.023438 238.773438 181.582031 C 238.914062 182.042969 239.046875 182.476562 239.160156 182.890625 C 239.746094 184.890625 240.179688 186.503906 240.492188 187.925781 C 240.753906 189.078125 240.941406 190.097656 241.070312 191.132812 C 241.15625 191.808594 241.226562 192.5 241.285156 193.207031 C 241.542969 196.5 241.285156 200.226562 240.566406 204.164062 C 240.410156 205.101562 240.207031 206.050781 239.992188 207 C 239.574219 208.800781 239.085938 210.625 238.496094 212.46875 C 238.199219 213.460938 237.851562 214.46875 237.496094 215.460938 C 235.285156 221.660156 232.210938 227.902344 228.492188 233.511719 C 225.246094 238.417969 219.261719 244.1875 215.542969 245.996094 C 214.609375 246.441406 213.117188 247.421875 212.183594 248.199219 C 208.074219 251.59375 194.0625 257.332031 185.734375 259.03125 C 184.140625 259.347656 181.113281 259.519531 177.75 259.535156 C 176.429688 259.535156 175.054688 259.503906 173.703125 259.476562 C 170.917969 259.375 168.21875 259.1875 166.164062 258.902344 C 158.066406 257.765625 143.925781 254.542969 136.503906 252.125 C 125.675781 248.613281 118.714844 244.847656 113.660156 239.753906 C 108.230469 234.300781 105.375 229.554688 102.632812 221.414062 C 99.457031 212.035156 98.640625 204.757812 99.875 196.640625 C 101.253906 187.496094 104.960938 176.289062 111.664062 161.113281 C 112.050781 160.238281 112.453125 159.34375 112.871094 158.4375 C 113.273438 157.53125 113.703125 156.597656 114.132812 155.648438 C 114.996094 153.777344 115.699219 152.210938 116.316406 150.800781 C 116.71875 149.847656 117.089844 148.957031 117.421875 148.125 C 118.367188 145.808594 119.070312 143.765625 119.875 141.175781 C 120.75 138.386719 121.328125 136.199219 121.742188 133.769531 C 121.914062 132.703125 122.058594 131.582031 122.1875 130.359375 C 122.402344 128.289062 122.546875 125.871094 122.675781 122.777344 C 122.691406 122.636719 122.707031 122.476562 122.707031 122.320312 C 122.746094 121.382812 122.789062 120.460938 122.835938 119.585938 C 123.652344 104.09375 125.492188 95.738281 129.925781 86.644531 C 131.40625 83.621094 133.058594 80.917969 134.953125 78.414062 C 135.570312 77.609375 136.214844 76.820312 136.917969 76.042969 C 138.269531 74.476562 139.761719 72.996094 141.382812 71.566406 C 142.921875 70.203125 145.722656 67.644531 147.574219 65.871094 C 150.53125 63.039062 151.261719 62.480469 153.574219 61.300781 C 156.574219 59.757812 159.273438 58.867188 163.324219 58.046875 L 166.164062 57.472656 L 166.066406 54.867188 C 165.992188 52.8125 166.09375 51.816406 166.554688 50.019531 C 167.054688 48.007812 167.085938 47.589844 166.8125 46.164062 C 166.636719 45.300781 165.820312 42.972656 164.988281 41.046875 C 163.050781 36.484375 162.789062 35.535156 162.171875 30.660156 C 161.601562 26.15625 161.527344 23.164062 161.914062 19.238281 C 162.042969 17.8125 162.21875 15.253906 162.277344 13.554688 C 162.34375 11.671875 162.546875 9.988281 162.789062 9.253906 C 163.007812 8.609375 163.277344 7.484375 163.367188 6.808594 C 163.710938 4.277344 165.964844 3.242188 167.601562 4.882812 C 168.175781 5.445312 168.347656 5.875 168.347656 6.664062 C 168.347656 7.242188 168.476562 7.789062 168.605469 7.875 C 168.75 7.960938 169.8125 9.429688 170.960938 11.125 C 173.230469 14.460938 174.492188 15.699219 178.382812 18.304688 C 181.859375 20.648438 186.351562 23.234375 186.910156 23.234375 C 187.542969 23.234375 199.964844 20.273438 204.027344 19.152344 C 204.128906 19.121094 204.226562 19.09375 204.328125 19.0625 C 207.644531 18.128906 207.804688 18.054688 209.195312 16.777344 C 209.410156 16.578125 209.769531 16.304688 210.199219 15.988281 C 210.933594 15.457031 211.867188 14.835938 212.695312 14.332031 C 214.046875 13.511719 216.832031 11.613281 218.886719 10.089844 C 224.054688 6.277344 225.375 5.402344 228.046875 4.0625 C 229.394531 3.386719 230.820312 2.769531 232.253906 2.25 C 233.847656 1.660156 235.472656 1.183594 237.035156 0.824219 L 237.050781 0.824219 C 237.136719 0.808594 237.222656 0.78125 237.308594 0.769531 C 240.808594 0.00390625 246.957031 0.164062 250.34375 1.128906 C 251.089844 1.34375 251.824219 1.574219 252.554688 1.847656 C 253.503906 2.207031 254.453125 2.625 255.496094 3.15625 C 257.308594 4.046875 259.390625 5.269531 262.089844 6.96875 C 264.140625 8.261719 265.722656 9.300781 267.015625 10.175781 C 268.003906 10.863281 268.808594 11.457031 269.527344 12.015625 C 270.734375 12.953125 271.664062 13.84375 272.742188 14.921875 C 274.410156 16.636719 275.410156 17.871094 275.828125 18.863281 C 276.304688 20 276.042969 20.835938 275.183594 21.738281"/></g><path fill="#6C6E09" d="M 271.507812 84.863281 C 271.609375 80.15625 270.933594 76.027344 269.324219 71.742188 C 268.949219 70.707031 268.507812 69.65625 268.003906 68.578125 C 267.933594 68.402344 267.84375 68.230469 267.761719 68.058594 C 264.6875 61.730469 261.570312 58.25 255.167969 54.046875 C 252.8125 52.507812 246.109375 49.101562 240.007812 46.324219 C 239.160156 45.949219 238.339844 45.578125 237.535156 45.230469 C 237.207031 45.085938 236.847656 44.914062 236.472656 44.757812 C 236.460938 44.757812 236.460938 44.757812 236.460938 44.757812 C 234.320312 43.804688 231.679688 42.613281 230.113281 41.894531 C 226.09375 40.023438 224.457031 39.460938 220.339844 38.585938 C 218.613281 38.210938 215.886719 37.566406 214.25 37.144531 C 212.628906 36.714844 210.429688 36.296875 209.398438 36.226562 C 207.585938 36.082031 207.414062 36.011719 205.761719 34.730469 C 202.5625 32.242188 198.398438 29.578125 194.550781 27.609375 L 190.703125 25.625 L 192.226562 25.308594 C 195.613281 24.648438 202.332031 22.917969 207.285156 21.453125 L 212.554688 19.914062 L 212.582031 19.925781 C 212.839844 19.8125 213.117188 19.726562 213.429688 19.695312 C 225.929688 18.511719 237.796875 14.046875 250.488281 14.402344 C 259.171875 14.644531 267.554688 16.84375 275.898438 19.117188 C 275.871094 19.03125 275.867188 18.953125 275.828125 18.863281 C 275.410156 17.871094 274.410156 16.636719 272.742188 14.921875 C 271.664062 13.84375 270.734375 12.953125 269.527344 12.015625 C 268.808594 11.457031 268.003906 10.863281 267.015625 10.175781 C 265.722656 9.300781 264.140625 8.261719 262.089844 6.96875 C 259.390625 5.269531 257.308594 4.046875 255.496094 3.15625 C 254.453125 2.625 253.503906 2.207031 252.554688 1.847656 C 251.824219 1.574219 251.089844 1.34375 250.34375 1.128906 C 246.957031 0.164062 240.808594 0.00390625 237.308594 0.769531 C 237.222656 0.78125 237.136719 0.808594 237.050781 0.824219 L 237.035156 0.824219 C 235.472656 1.183594 233.847656 1.660156 232.253906 2.25 C 230.820312 2.769531 229.394531 3.386719 228.046875 4.0625 C 225.375 5.402344 224.054688 6.277344 218.886719 10.089844 C 216.832031 11.613281 214.046875 13.511719 212.695312 14.332031 C 211.867188 14.835938 210.933594 15.457031 210.199219 15.988281 C 209.769531 16.304688 209.410156 16.578125 209.195312 16.777344 C 207.804688 18.054688 207.644531 18.128906 204.328125 19.0625 C 204.226562 19.09375 204.128906 19.121094 204.027344 19.152344 C 199.964844 20.273438 187.542969 23.234375 186.910156 23.234375 C 186.351562 23.234375 181.859375 20.648438 178.382812 18.304688 C 174.492188 15.699219 173.230469 14.460938 170.960938 11.125 C 169.8125 9.429688 168.75 7.960938 168.605469 7.875 C 168.476562 7.789062 168.347656 7.242188 168.347656 6.664062 C 168.347656 5.875 168.175781 5.445312 167.601562 4.882812 C 165.964844 3.242188 163.710938 4.277344 163.367188 6.808594 C 163.277344 7.484375 163.007812 8.609375 162.789062 9.253906 C 162.546875 9.988281 162.34375 11.671875 162.277344 13.554688 C 162.21875 15.253906 162.042969 17.8125 161.914062 19.238281 C 161.527344 23.164062 161.601562 26.15625 162.171875 30.660156 C 162.789062 35.535156 163.050781 36.484375 164.988281 41.046875 C 165.820312 42.972656 166.636719 45.300781 166.8125 46.164062 C 167.085938 47.589844 167.054688 48.007812 166.554688 50.019531 C 166.09375 51.816406 165.992188 52.8125 166.066406 54.867188 L 166.164062 57.472656 L 166.007812 57.503906 C 169.378906 63.796875 173.546875 69.765625 175.929688 76.496094 C 184.335938 100.257812 172.714844 126.101562 171.0625 150.035156 C 170.273438 161.523438 169.574219 173.148438 170.902344 184.621094 C 172.339844 197.023438 176.730469 207.867188 182.640625 218.769531 C 189.320312 231.074219 191.132812 244.839844 189.0625 258.222656 C 197.386719 255.945312 208.585938 251.171875 212.183594 248.199219 C 213.117188 247.421875 214.609375 246.441406 215.542969 245.996094 C 219.261719 244.1875 225.246094 238.417969 228.492188 233.511719 C 232.210938 227.902344 235.285156 221.660156 237.496094 215.460938 C 237.851562 214.46875 238.199219 213.460938 238.496094 212.46875 C 239.085938 210.625 239.574219 208.800781 239.992188 207 C 240.207031 206.050781 240.410156 205.101562 240.566406 204.164062 C 241.285156 200.226562 241.542969 196.5 241.285156 193.207031 C 241.226562 192.5 241.15625 191.808594 241.070312 191.132812 C 240.941406 190.097656 240.753906 189.078125 240.492188 187.925781 C 240.179688 186.503906 239.746094 184.890625 239.160156 182.890625 C 239.046875 182.476562 238.914062 182.042969 238.773438 181.582031 C 238.601562 181.023438 238.441406 180.488281 238.285156 179.972656 C 236.34375 173.6875 234.910156 170.347656 231.105469 162.824219 C 229.699219 160.050781 228.277344 157.128906 227.289062 155.042969 C 226.855469 154.136719 226.511719 153.390625 226.28125 152.871094 C 226.210938 152.726562 226.152344 152.597656 226.109375 152.480469 C 224.085938 147.648438 222.863281 142.816406 222.015625 135.726562 L 222.015625 135.710938 C 221.886719 134.585938 221.757812 133.394531 221.640625 132.140625 C 221.445312 129.984375 221.257812 127.625 221.097656 125.023438 C 220.261719 111.875 219.890625 108.292969 218.742188 102.425781 C 217.105469 94.082031 212.597656 83.667969 207.859375 77.339844 C 207.730469 77.164062 207.558594 76.949219 207.375 76.730469 C 206.796875 76.027344 205.964844 75.105469 205.003906 74.117188 C 202.03125 70.980469 197.824219 66.964844 196.203125 65.816406 C 193.933594 64.21875 191.519531 62.824219 189.007812 61.671875 C 188.550781 61.441406 188.074219 61.242188 187.601562 61.054688 C 184.097656 59.558594 180.40625 58.492188 176.605469 57.875 L 173.917969 57.445312 L 173.902344 53.832031 L 173.890625 50.207031 L 172.554688 47.890625 C 170.746094 44.757812 169.726562 42.453125 169.136719 40.082031 C 168.042969 35.75 167.054688 30.171875 166.8125 27.019531 C 166.507812 23.234375 166.46875 18.777344 166.710938 18.519531 C 166.796875 18.417969 167.558594 18.980469 168.347656 19.742188 C 171.707031 22.949219 176.402344 25.40625 186.410156 29.234375 C 194.605469 32.367188 199.375 34.703125 202.117188 36.964844 C 202.289062 36.949219 202.46875 36.941406 202.660156 36.957031 C 221.65625 38.53125 235.167969 59.152344 242.851562 74.5625 C 249.59375 88.085938 256.574219 106.730469 253.074219 122.566406 C 253.464844 122.199219 253.871094 121.816406 254.292969 121.410156 C 254.75 120.964844 255.210938 120.519531 255.65625 120.074219 C 256.417969 119.296875 257.164062 118.507812 257.882812 117.699219 C 261.917969 113.167969 265.074219 108.25 267.515625 102.726562 C 267.949219 101.761719 268.335938 100.785156 268.710938 99.777344 C 269.011719 99.03125 269.28125 98.265625 269.539062 97.488281 C 271.4375 91.851562 271.851562 89.851562 271.652344 87.363281 C 271.566406 86.269531 271.496094 85.132812 271.507812 84.863281"/><g clip-path="url(#b)"><path fill="#434345" d="M 275.183594 21.738281 C 275.125 21.8125 275.054688 21.871094 274.96875 21.925781 L 274.953125 21.925781 C 270.601562 20.847656 265.40625 19.640625 263.335938 19.265625 L 262.476562 19.109375 L 264.515625 21.769531 C 265.191406 22.648438 265.878906 23.582031 266.554688 24.519531 C 265.503906 24.71875 264.34375 24.917969 263.078125 25.136719 C 261.15625 22.546875 259.171875 20.042969 258.253906 19.050781 C 257.851562 18.617188 257.25 18.332031 256.53125 18.230469 C 254.308594 17.914062 247.15625 17.296875 245.664062 17.296875 L 244.15625 17.296875 L 246.351562 21.511719 C 247.328125 23.378906 248.21875 25.207031 248.953125 26.804688 C 247.804688 26.832031 246.640625 26.820312 245.449219 26.761719 C 244.773438 25.351562 243.957031 23.726562 243.195312 22.257812 L 240.464844 17.023438 L 233.703125 17.09375 C 230 17.136719 226.871094 17.253906 226.769531 17.351562 C 226.667969 17.453125 227.585938 19.308594 228.808594 21.511719 C 229.46875 22.703125 230.085938 23.84375 230.632812 24.890625 C 229.109375 24.648438 227.800781 24.429688 226.640625 24.199219 C 225.375 21.855469 224 19.425781 223.125 17.972656 C 222.835938 17.511719 222.664062 17.496094 219.632812 17.785156 C 217.882812 17.957031 214.0625 18.445312 211.117188 18.863281 C 208.175781 19.28125 205.492188 19.625 205.128906 19.625 C 204.65625 19.625 204.273438 19.4375 204.027344 19.152344 C 204.128906 19.121094 204.226562 19.09375 204.328125 19.0625 C 207.644531 18.128906 207.804688 18.054688 209.195312 16.777344 C 209.410156 16.578125 209.769531 16.304688 210.199219 15.988281 C 212.238281 15.65625 214.738281 15.296875 217.566406 14.953125 L 222.289062 14.359375 L 222.921875 13.5 C 223.28125 13.039062 224.570312 11.511719 225.765625 10.148438 C 227.316406 8.375 230.058594 5.039062 232.253906 2.25 C 233.847656 1.660156 235.472656 1.183594 237.035156 0.824219 C 236.617188 1.417969 236.058594 2.164062 235.355469 3.097656 C 233.605469 5.414062 230.929688 8.796875 229.394531 10.652344 L 226.609375 13.988281 L 232.753906 13.800781 C 236.128906 13.699219 238.929688 13.5 238.972656 13.367188 C 239.257812 12.648438 240.953125 11.125 246.078125 6.996094 C 249.167969 4.523438 251.191406 2.882812 252.554688 1.847656 C 253.503906 2.207031 254.453125 2.625 255.496094 3.15625 C 255.371094 3.269531 255.210938 3.398438 255.054688 3.527344 C 254.234375 4.21875 251.105469 6.796875 248.074219 9.300781 L 242.605469 13.816406 L 246.679688 14.101562 C 248.925781 14.273438 252.152344 14.546875 253.863281 14.71875 L 256.964844 15.023438 L 263.335938 11.929688 C 264.859375 11.195312 266.066406 10.621094 267.015625 10.175781 C 268.003906 10.863281 268.808594 11.457031 269.527344 12.015625 C 268.722656 12.503906 267.574219 13.125 265.992188 13.960938 L 262.375 15.855469 L 266.382812 16.675781 C 268.949219 17.207031 272.613281 18.070312 275.828125 18.863281 C 276.304688 20 276.042969 20.835938 275.183594 21.738281"/></g><path fill="#434345" d="M 259.90625 93.246094 C 263.265625 96.050781 266.007812 98.082031 268.710938 99.777344 C 268.335938 100.785156 267.949219 101.761719 267.515625 102.726562 C 265.847656 101.691406 264.027344 100.46875 262.734375 99.503906 C 261.671875 98.699219 259.316406 96.84375 257.453125 95.332031 C 253.761719 92.324219 249.082031 88.773438 249.082031 88.988281 C 249.082031 89.074219 249.355469 90.570312 249.714844 92.296875 C 250.472656 96.109375 251.03125 100.769531 251.277344 105.214844 L 251.449219 108.523438 L 253.574219 111.703125 C 254.75 113.457031 256.273438 115.617188 256.992188 116.535156 C 257.292969 116.921875 257.597656 117.3125 257.882812 117.699219 C 257.164062 118.507812 256.417969 119.296875 255.65625 120.074219 C 254.59375 118.605469 253.488281 117.066406 252.8125 116.132812 L 251.003906 113.628906 L 250.460938 116.578125 C 249.886719 119.671875 248.621094 123.683594 247.054688 127.484375 C 245.40625 128.503906 244.183594 128.804688 243.105469 128.53125 C 245.476562 123.3125 246.929688 118.734375 247.546875 114.535156 C 247.832031 112.609375 248.03125 110.984375 247.976562 110.941406 C 247.875 110.941406 246.582031 112.292969 245.0625 114.003906 C 242.835938 116.480469 240.96875 118.492188 239.402344 120.101562 C 239.132812 118.96875 238.816406 117.816406 238.457031 116.679688 C 241.671875 113.183594 245.535156 108.824219 246.523438 107.488281 C 246.839844 107.042969 247.328125 106.625 247.574219 106.539062 C 247.960938 106.425781 248.046875 106.121094 248.046875 104.667969 C 248.046875 101.042969 246.539062 91.421875 245.378906 87.566406 L 245.03125 86.398438 L 244.054688 88.34375 C 242.621094 91.203125 240.808594 93.894531 235.84375 100.585938 C 234.835938 101.9375 233.921875 103.144531 233.128906 104.121094 C 232.640625 103.214844 232.109375 102.335938 231.578125 101.503906 C 236.027344 95.492188 240.09375 89.289062 241.816406 85.867188 C 242.246094 84.988281 242.894531 83.9375 243.265625 83.480469 L 243.941406 82.6875 L 243.007812 80.15625 C 241.097656 75.035156 238.023438 69.152344 235.355469 65.554688 C 233.992188 63.699219 233.605469 63.441406 233.589844 64.390625 C 233.589844 65.644531 231.21875 71.941406 229.339844 75.710938 C 227.273438 79.839844 224.242188 85.277344 222.101562 88.785156 C 221.570312 88.109375 220.867188 87.261719 220.136719 86.386719 C 223.28125 80.960938 227.371094 72.921875 228.824219 69.253906 C 229.339844 67.929688 229.984375 65.84375 230.257812 64.621094 C 230.546875 63.367188 230.929688 62.015625 231.132812 61.558594 L 231.519531 60.722656 L 229.394531 58.808594 C 226.339844 56.019531 222.851562 53.273438 222.679688 53.488281 C 222.632812 53.546875 222.160156 54.394531 221.628906 55.402344 C 219.617188 59.15625 214.390625 65.285156 209.796875 69.265625 C 209.640625 69.394531 209.496094 69.527344 209.351562 69.65625 C 209.035156 68.605469 208.808594 67.527344 208.621094 66.417969 C 209.007812 66.003906 209.46875 65.554688 209.984375 65.039062 C 214.207031 60.835938 217.308594 56.925781 219.058594 53.574219 L 220.066406 51.632812 L 219.417969 51.140625 C 218.328125 50.292969 212.382812 46.8125 209.726562 45.460938 C 209.179688 45.171875 208.5625 44.886719 207.960938 44.613281 C 207.945312 44.441406 207.945312 44.265625 207.945312 44.109375 L 207.933594 41.433594 C 209.054688 41.863281 210.371094 42.46875 211.894531 43.234375 C 214.835938 44.710938 219.660156 47.503906 221.6875 48.882812 C 222.992188 49.761719 223.050781 49.761719 227.71875 48.394531 C 231.117188 47.417969 233.503906 46.4375 236.460938 44.757812 C 236.460938 44.757812 236.460938 44.757812 236.472656 44.757812 C 236.847656 44.914062 237.207031 45.085938 237.535156 45.230469 C 238.339844 45.578125 239.160156 45.949219 240.007812 46.324219 C 236.273438 48.625 233.605469 49.847656 229.871094 51.027344 C 228.089844 51.589844 226.640625 52.109375 226.640625 52.191406 C 226.640625 52.265625 227.660156 53.15625 228.894531 54.164062 C 230.128906 55.167969 232.125 57.011719 233.316406 58.25 C 235.785156 60.824219 234.921875 60.40625 245.003906 63.886719 C 257.664062 68.261719 260.410156 68.851562 266.742188 68.621094 C 267.171875 68.605469 267.589844 68.589844 268.003906 68.578125 C 268.507812 69.65625 268.949219 70.707031 269.324219 71.742188 C 269.039062 71.753906 268.75 71.785156 268.433594 71.8125 C 262.261719 72.375 257.378906 71.46875 246.207031 67.65625 C 242.476562 66.390625 239.390625 65.398438 239.347656 65.457031 C 239.289062 65.511719 239.777344 66.433594 240.425781 67.5 C 242.203125 70.449219 245.019531 76.460938 246.367188 80.199219 C 247.730469 84.011719 247.140625 83.378906 253.976562 88.558594 C 255.757812 89.910156 258.414062 92.011719 259.90625 93.246094"/><path fill="#E2E583" d="M 207.375 76.730469 C 205.144531 77.511719 201.3125 78.273438 199.101562 78.273438 C 195.46875 78.273438 192.941406 77.265625 190.328125 74.804688 C 188.722656 73.28125 187.714844 71.597656 186.828125 68.964844 C 185.894531 66.148438 185.820312 62.75 186.683594 61.65625 C 186.910156 61.371094 187.257812 61.15625 187.601562 61.054688 C 188.074219 61.242188 188.550781 61.441406 189.007812 61.671875 C 189.082031 62.203125 189.125 63.222656 189.140625 64.320312 C 189.152344 66.664062 189.238281 67.253906 189.855469 68.707031 C 191.878906 73.582031 195.773438 75.753906 201.054688 74.976562 C 202.03125 74.820312 203.695312 74.460938 205.003906 74.117188 C 205.964844 75.105469 206.796875 76.027344 207.375 76.730469"/><path fill="#E2E583" d="M 171.253906 64.460938 C 170.945312 64.679688 170.6875 65.070312 170.6875 65.328125 C 170.6875 66.203125 172.1875 69.179688 172.851562 69.613281 C 173.472656 70.019531 173.574219 70.023438 174.167969 69.628906 C 174.988281 69.09375 174.988281 68.21875 174.171875 66.460938 C 173.511719 65.042969 172.6875 64.058594 172.15625 64.058594 C 171.972656 64.058594 171.5625 64.242188 171.253906 64.460938"/><path fill="#E2E583" d="M 167.3125 82.71875 C 165.847656 85.578125 161.816406 88.570312 157.925781 89.664062 C 156.128906 90.167969 151.648438 90.097656 149.539062 89.535156 C 147.039062 88.875 142.949219 86.757812 140.78125 85.019531 C 138.726562 83.367188 136.429688 80.746094 134.953125 78.414062 C 135.570312 77.609375 136.214844 76.820312 136.917969 76.042969 C 139.074219 79.882812 143.582031 83.9375 148.175781 85.722656 C 152.292969 87.320312 156.171875 87.277344 159.605469 85.59375 C 164.257812 83.304688 166.179688 79.539062 165.175781 74.703125 C 164.441406 71.167969 162.976562 69.484375 160.621094 69.484375 C 159.1875 69.484375 158.226562 70.117188 157.679688 71.425781 C 157.035156 72.980469 155.628906 73.207031 154.78125 71.914062 C 154.40625 71.355469 154.40625 71.195312 154.792969 70.1875 C 155.382812 68.679688 156.945312 67.210938 158.613281 66.605469 C 161.800781 65.472656 165.589844 67.269531 167.183594 70.648438 C 169.007812 74.519531 169.066406 79.261719 167.3125 82.71875"/><path fill="#E2E583" d="M 174.835938 75.59375 C 174.277344 75.996094 174.253906 76.125 174.421875 77.828125 C 174.652344 80.152344 174.914062 80.800781 175.714844 81 C 176.746094 81.257812 177.386719 80.515625 177.382812 79.070312 C 177.371094 76.71875 176.710938 75.167969 175.714844 75.167969 C 175.554688 75.167969 175.171875 75.351562 174.835938 75.59375"/><path fill="#E2E583" d="M 191.84375 87.695312 C 191.683594 87.890625 191.582031 88.394531 191.621094 88.78125 C 191.683594 89.34375 191.957031 89.640625 192.863281 90.113281 C 193.507812 90.453125 194.613281 91.101562 195.363281 91.585938 C 197.347656 92.871094 198.535156 92.710938 198.535156 91.160156 C 198.535156 90.324219 197.398438 89.289062 195.183594 88.101562 C 193.585938 87.25 192.335938 87.097656 191.84375 87.695312"/><path fill="#E2E583" d="M 134.4375 91.3125 C 133.945312 92.066406 134.09375 92.683594 135.136719 94.207031 C 136.492188 96.199219 137.8125 96.65625 138.625 95.421875 C 139.144531 94.628906 139.128906 94.59375 137.222656 92.117188 C 135.972656 90.488281 135.136719 90.246094 134.4375 91.3125"/><path fill="#E2E583" d="M 180.125 94.0625 C 177.699219 94.410156 175.886719 95.011719 173.574219 96.234375 C 170.738281 97.738281 168.648438 99.414062 167.070312 101.46875 C 161.28125 108.984375 162.613281 118.730469 169.910156 122.25 C 175.097656 124.746094 182.539062 122.222656 185.03125 117.121094 C 185.964844 115.21875 186.175781 112.265625 185.523438 110.300781 C 184.996094 108.726562 183.316406 106.8125 182.210938 106.535156 C 181.230469 106.289062 180.285156 106.777344 180.066406 107.640625 C 179.917969 108.238281 180.046875 108.472656 180.949219 109.253906 C 184.347656 112.195312 182.832031 117.453125 178.035156 119.347656 C 175.765625 120.242188 172.832031 120.214844 171.074219 119.285156 C 168.980469 118.183594 167.675781 116.554688 166.976562 114.175781 C 166.226562 111.632812 166.644531 108.570312 168.15625 105.574219 C 169.164062 103.570312 171.976562 100.734375 174.296875 99.378906 C 177.019531 97.792969 179.089844 97.257812 182.546875 97.257812 C 185.511719 97.257812 185.558594 97.265625 187.574219 98.265625 C 191.285156 100.109375 194.441406 104.101562 195.550781 108.363281 C 196.074219 110.386719 196.066406 114.976562 195.527344 117.355469 C 194.308594 122.753906 190.882812 127.859375 185.875 131.738281 C 179.914062 136.351562 174.167969 138.617188 167.695312 138.902344 C 163.648438 139.078125 162.441406 138.851562 159.210938 137.300781 C 150.328125 133.035156 146.394531 120.042969 150.363281 108.054688 C 150.804688 106.710938 151.492188 105.210938 151.898438 104.695312 C 153.074219 103.203125 152.738281 101.957031 151.167969 101.957031 C 149.675781 101.957031 147.992188 104.980469 146.71875 109.941406 C 144.890625 117.042969 145.519531 124.484375 148.4375 130.324219 C 151.359375 136.164062 154.914062 139.371094 160.628906 141.339844 C 162.933594 142.132812 163.285156 142.179688 166.5625 142.164062 C 171.921875 142.140625 176.730469 140.878906 181.773438 138.167969 C 189.972656 133.761719 195.539062 127.617188 197.996094 120.25 C 200.574219 112.523438 199.097656 104.734375 194.003906 99.21875 C 191.292969 96.285156 188.117188 94.566406 184.429688 94.039062 C 182.4375 93.757812 182.238281 93.757812 180.125 94.0625"/><path fill="#E2E583" d="M 144.796875 95.203125 C 143.671875 96.324219 144.796875 97.730469 146.707031 97.59375 C 147.945312 97.503906 148.398438 97.015625 148.15625 96.039062 C 147.882812 94.929688 145.632812 94.371094 144.796875 95.203125"/><path fill="#E2E583" d="M 200.90625 96.921875 C 200.445312 97.382812 200.53125 98.183594 201.203125 99.738281 C 201.542969 100.511719 201.953125 101.707031 202.128906 102.421875 C 202.652344 104.542969 202.949219 105.125 203.5625 105.28125 C 204.628906 105.550781 205.238281 104.980469 205.238281 103.714844 C 205.238281 102.136719 203.84375 97.882812 203.101562 97.179688 C 202.425781 96.550781 201.398438 96.425781 200.90625 96.921875"/><path fill="#E2E583" d="M 138.300781 105.339844 C 137.757812 105.714844 137.457031 106.632812 137.203125 108.648438 C 136.914062 110.976562 137.214844 111.851562 138.300781 111.851562 C 138.867188 111.851562 139.71875 111.28125 139.753906 110.871094 C 139.761719 110.769531 139.910156 109.734375 140.089844 108.546875 C 140.324219 106.996094 140.335938 106.246094 140.132812 105.832031 C 139.855469 105.265625 138.8125 104.984375 138.300781 105.339844"/><path fill="#E2E583" d="M 154.449219 113.582031 C 154.015625 114.140625 153.925781 114.617188 153.925781 116.347656 C 153.925781 119.058594 154.304688 121.359375 154.851562 121.953125 C 155.375 122.523438 156.585938 122.582031 157.011719 122.058594 C 157.257812 121.753906 157.265625 121.125 157.046875 119.242188 C 156.890625 117.898438 156.761719 116.058594 156.761719 115.121094 C 156.761719 113.699219 156.683594 113.386719 156.273438 113.167969 C 155.472656 112.742188 155.027344 112.839844 154.449219 113.582031"/><path fill="#E2E583" d="M 205.289062 114.125 C 204.910156 114.507812 204.765625 115.183594 204.644531 117.175781 C 204.507812 119.449219 204.542969 119.789062 204.96875 120.222656 C 205.304688 120.570312 205.652344 120.660156 206.140625 120.535156 C 207.105469 120.289062 207.558594 119.011719 207.558594 116.554688 C 207.558594 114.898438 207.46875 114.433594 207.09375 114.09375 C 206.476562 113.527344 205.875 113.542969 205.289062 114.125"/><path fill="#E2E583" d="M 143.980469 144.917969 C 143.078125 149.234375 141.097656 152.855469 137.792969 156.179688 C 135.152344 158.839844 132.957031 160.25 129.683594 161.402344 C 125.015625 163.039062 119.503906 163.316406 114.90625 162.136719 C 113.644531 161.820312 112.554688 161.472656 111.664062 161.113281 C 112.050781 160.238281 112.453125 159.34375 112.871094 158.4375 C 115.050781 159.328125 117.390625 159.703125 120.539062 159.734375 C 123.164062 159.746094 124.386719 159.632812 126.179688 159.183594 C 133.34375 157.402344 138.382812 152.667969 140.550781 145.664062 C 141.371094 143.03125 141.371094 139.035156 140.566406 136.804688 C 138.742188 131.796875 134.894531 127.796875 129.164062 124.964844 C 127.386719 124.085938 124.785156 123.222656 122.675781 122.777344 C 122.691406 122.636719 122.707031 122.476562 122.707031 122.320312 C 122.746094 121.382812 122.789062 120.460938 122.835938 119.585938 C 125.117188 119.972656 127.917969 120.851562 130.355469 122.042969 C 140.625 127.078125 145.878906 135.910156 143.980469 144.917969"/><path fill="#E2E583" d="M 202.003906 128.554688 C 201.625 128.960938 200.632812 130.476562 199.796875 131.925781 C 198.949219 133.398438 197.695312 135.136719 196.960938 135.863281 C 196.035156 136.785156 195.648438 137.375 195.648438 137.867188 C 195.648438 138.613281 196.289062 139.234375 197.0625 139.234375 C 198.257812 139.234375 202.296875 134.25 203.859375 130.84375 C 204.394531 129.675781 204.445312 129.371094 204.183594 128.800781 C 204.015625 128.4375 203.78125 128.128906 203.679688 128.128906 C 203.566406 128.128906 203.320312 128.0625 203.085938 127.972656 C 202.832031 127.875 202.433594 128.089844 202.003906 128.554688"/><path fill="#E2E583" d="M 159.855469 129.421875 C 159.15625 130.121094 159.210938 130.765625 160.039062 131.546875 C 161.066406 132.515625 163.765625 134.070312 164.421875 134.070312 C 165.246094 134.070312 165.871094 133.003906 165.507812 132.210938 C 165.246094 131.625 161.246094 128.902344 160.65625 128.902344 C 160.5 128.902344 160.140625 129.136719 159.855469 129.421875"/><path fill="#E2E583" d="M 128.316406 148.195312 C 125.648438 150.613281 120.148438 151.976562 116.945312 151.015625 C 116.71875 150.945312 116.503906 150.871094 116.316406 150.800781 C 116.71875 149.847656 117.089844 148.957031 117.421875 148.125 C 117.625 148.167969 117.824219 148.210938 118.054688 148.269531 C 120.0625 148.785156 124.285156 147.648438 125.992188 146.136719 C 127.398438 144.902344 127.960938 143.550781 127.976562 141.433594 C 127.988281 138.429688 127.183594 137.367188 122.71875 134.402344 C 122.417969 134.203125 122.089844 133.984375 121.742188 133.769531 C 121.914062 132.703125 122.058594 131.582031 122.1875 130.359375 C 126.152344 132.488281 129.539062 135.421875 130.484375 137.550781 C 131.980469 140.945312 130.988281 145.765625 128.316406 148.195312"/><path fill="#E2E583" d="M 227.289062 155.042969 C 226.238281 156.078125 223.238281 155.90625 220.25 154.425781 C 213.15625 150.929688 211.160156 142.082031 216.203125 136.472656 C 216.820312 135.765625 218.742188 134.203125 220.464844 132.960938 C 220.910156 132.644531 221.300781 132.375 221.640625 132.140625 C 221.757812 133.394531 221.886719 134.585938 222.015625 135.710938 L 222.015625 135.726562 C 217.492188 138.960938 216.71875 140.214844 216.71875 143.882812 C 216.71875 145.980469 216.804688 146.527344 217.347656 147.632812 C 218.742188 150.46875 222.101562 152.667969 225.1875 152.785156 C 225.621094 152.800781 225.980469 152.828125 226.28125 152.871094 C 226.511719 153.390625 226.855469 154.136719 227.289062 155.042969"/><path fill="#E2E583" d="M 185.074219 144.195312 C 181.722656 145.972656 181.179688 146.570312 181.910156 147.683594 C 182.5 148.578125 183.347656 148.386719 186.75 146.589844 C 189.84375 144.953125 190.378906 144.332031 189.652344 143.214844 C 189.417969 142.855469 189.007812 142.59375 188.671875 142.59375 C 188.355469 142.59375 186.726562 143.320312 185.074219 144.195312"/><path fill="#E2E583" d="M 151.78125 144.867188 C 151.230469 145.488281 151.246094 146.261719 151.828125 146.882812 C 152.671875 147.789062 155.71875 149.621094 156.375 149.621094 C 157.769531 149.621094 158.269531 148.277344 157.226562 147.328125 C 156.21875 146.414062 153.042969 144.402344 152.609375 144.402344 C 152.382812 144.402344 152.011719 144.609375 151.78125 144.867188"/><path fill="#E2E583" d="M 199.488281 145.980469 C 199.230469 146.128906 199.050781 146.546875 199.050781 146.984375 C 199.050781 148.125 199.847656 148.539062 202.066406 148.539062 C 203.769531 148.539062 203.988281 148.476562 204.355469 147.917969 C 204.824219 147.203125 204.566406 146.421875 203.71875 145.964844 C 203.070312 145.621094 200.089844 145.632812 199.488281 145.980469"/><path fill="#E2E583" d="M 165.910156 149.828125 C 165.375 150.417969 165.582031 151.5 166.300781 151.890625 C 167.003906 152.269531 170.402344 152.496094 171.332031 152.222656 C 171.769531 152.09375 172.269531 151.691406 172.488281 151.289062 C 172.855469 150.617188 172.839844 150.542969 172.195312 149.972656 C 171.578125 149.425781 171.253906 149.363281 168.933594 149.351562 C 166.714844 149.339844 166.292969 149.40625 165.910156 149.828125"/><path fill="#E2E583" d="M 191.675781 152.007812 C 185.539062 152.960938 180.097656 155.839844 176.570312 160.007812 C 174.949219 161.917969 173.265625 165.003906 173.265625 166.050781 C 173.265625 167.058594 173.734375 167.652344 174.527344 167.652344 C 175.3125 167.652344 175.9375 167.085938 176.230469 166.105469 C 176.914062 163.824219 179.738281 160.566406 182.726562 158.601562 C 186.257812 156.28125 189.769531 155.257812 194.796875 155.074219 C 197.914062 154.960938 198.742188 155.019531 200.625 155.492188 C 205.109375 156.613281 209.289062 159.308594 212.214844 162.976562 C 214.054688 165.285156 216.144531 169.382812 216.707031 171.789062 C 217.238281 174.058594 217.230469 178.769531 216.695312 180.59375 C 215.195312 185.714844 211.296875 189.910156 205.960938 192.160156 C 204.527344 192.761719 204 192.84375 201.5 192.84375 C 196.960938 192.84375 193.289062 191.558594 190.644531 189.050781 C 187.976562 186.519531 186.863281 183.851562 186.828125 179.898438 C 186.800781 177.394531 186.832031 177.257812 187.769531 175.355469 C 188.964844 172.925781 190.921875 171.03125 193.070312 170.222656 C 194.277344 169.769531 194.925781 169.6875 196.730469 169.78125 C 199.925781 169.941406 201.550781 170.929688 202.542969 173.3125 C 203.265625 175.042969 202.921875 176.769531 201.578125 178.167969 C 200.355469 179.4375 200.648438 181.085938 202.09375 181.085938 C 204.054688 181.085938 206.011719 178.167969 206.011719 175.25 C 206.011719 172.019531 204.078125 168.878906 201.269531 167.550781 C 195.902344 165.003906 189.402344 166.964844 185.925781 172.175781 C 183.589844 175.675781 182.980469 179.484375 184.074219 183.75 C 185.664062 189.9375 189.640625 193.699219 196.445312 195.457031 C 198.59375 196.011719 199.332031 196.082031 202.015625 195.992188 C 205.601562 195.871094 207.402344 195.3125 210.578125 193.332031 C 215.105469 190.515625 218.164062 186.589844 219.714844 181.601562 C 220.496094 179.09375 220.546875 173.957031 219.816406 171.140625 C 218.367188 165.5625 214.789062 160.117188 210.34375 156.722656 C 204.941406 152.59375 198.457031 150.957031 191.675781 152.007812"/><path fill="#E2E583" d="M 151.289062 160.085938 C 150.292969 161.191406 150.882812 162.097656 153.023438 162.742188 C 153.589844 162.914062 154.722656 163.351562 155.550781 163.714844 C 156.789062 164.257812 157.15625 164.320312 157.691406 164.078125 C 158.613281 163.652344 158.542969 162.480469 157.535156 161.636719 C 156.644531 160.886719 154.3125 159.957031 152.789062 159.742188 C 151.941406 159.625 151.648438 159.6875 151.289062 160.085938"/><path fill="#E2E583" d="M 223.339844 163.570312 C 222.90625 164.007812 222.964844 164.941406 223.492188 165.921875 C 223.734375 166.375 224.285156 167.628906 224.707031 168.6875 C 225.386719 170.390625 225.566406 170.632812 226.203125 170.703125 C 226.589844 170.742188 227.117188 170.621094 227.335938 170.441406 C 228.199219 169.734375 227.191406 165.976562 225.601562 163.9375 C 225.035156 163.210938 223.886719 163.027344 223.339844 163.570312"/><path fill="#E2E583" d="M 135.644531 168.839844 C 122.699219 171.644531 113.222656 181.140625 109.707031 194.832031 C 108.109375 201.054688 107.558594 206.191406 108.027344 210.539062 C 108.65625 216.351562 109.8125 220.011719 112.4375 224.488281 C 114.378906 227.796875 115.328125 229.042969 116.277344 229.535156 C 117.335938 230.085938 118.007812 230.011719 118.472656 229.292969 C 118.996094 228.5 118.804688 227.851562 117.851562 227.144531 C 117 226.515625 114.863281 223.09375 113.574219 220.304688 C 109.777344 212.070312 110.515625 198.316406 115.269531 188.761719 C 117.066406 185.144531 118.550781 182.957031 120.828125 180.570312 C 123.472656 177.800781 125.664062 176.164062 128.785156 174.632812 C 133.324219 172.402344 136.757812 171.527344 140.980469 171.527344 C 151.398438 171.527344 160.0625 176.535156 164.734375 185.246094 C 166.847656 189.191406 167.851562 193.152344 167.851562 197.570312 C 167.851562 203.019531 166.140625 207.242188 162.304688 211.261719 C 161.019531 212.605469 159.316406 214.144531 158.488281 214.710938 C 149.234375 221.019531 138.230469 219.425781 132.585938 210.949219 C 130.765625 208.21875 129.902344 205.421875 129.753906 201.753906 C 129.558594 197.15625 130.238281 194.792969 132.894531 190.800781 C 135.429688 186.988281 137.835938 185.648438 142.195312 185.625 C 144.566406 185.609375 144.910156 185.671875 146.5 186.425781 C 149.929688 188.050781 151.863281 190.644531 151.863281 193.617188 C 151.863281 195.605469 151.234375 196.640625 149.441406 197.609375 C 148.074219 198.34375 147.578125 199.160156 148.011719 199.972656 C 148.785156 201.417969 151.25 200.824219 153.179688 198.730469 C 154.664062 197.121094 155.0625 196.046875 155.074219 193.617188 C 155.085938 191.808594 154.984375 191.332031 154.257812 189.792969 C 152.15625 185.351562 147.324219 182.378906 142.195312 182.378906 C 137.214844 182.378906 133.4375 184.414062 130.488281 188.683594 C 127.558594 192.925781 126.488281 196.175781 126.488281 200.851562 C 126.488281 205.5 127.65625 209.363281 130.183594 213.09375 C 135.722656 221.273438 146.035156 223.984375 155.78125 219.824219 C 162.769531 216.84375 168.628906 210.1875 170.414062 203.203125 C 171.890625 197.421875 171.050781 191.058594 167.984375 184.808594 C 165.574219 179.898438 162.617188 176.433594 158.414062 173.59375 C 153.042969 169.96875 147.738281 168.417969 140.800781 168.460938 C 138.867188 168.472656 136.554688 168.640625 135.644531 168.839844"/><path fill="#E2E583" d="M 165.433594 170.988281 C 165.210938 171.230469 165.011719 171.683594 165.011719 171.941406 C 165.011719 172.613281 168.277344 177.140625 168.90625 177.339844 C 170.164062 177.738281 171.054688 176.539062 170.464844 175.25 C 170.007812 174.242188 167.390625 170.832031 166.945312 170.660156 C 166.25 170.394531 165.90625 170.46875 165.433594 170.988281"/><path fill="#E2E583" d="M 110.269531 175.140625 C 109.367188 175.859375 107.769531 178.554688 107.769531 179.355469 C 107.769531 180.132812 108.371094 180.832031 109.035156 180.832031 C 109.632812 180.832031 110.367188 180.03125 111.496094 178.140625 C 112.554688 176.386719 112.621094 175.875 111.894531 175.144531 C 111.234375 174.484375 111.09375 174.484375 110.269531 175.140625"/><path fill="#E2E583" d="M 226.007812 192.484375 C 222.574219 199.363281 224.34375 204.699219 231.433594 208.886719 C 233.257812 209.949219 236.402344 211.53125 238.496094 212.46875 C 238.199219 213.460938 237.851562 214.46875 237.496094 215.460938 C 236.761719 215.242188 235.757812 214.769531 234.277344 214.019531 C 228.0625 210.867188 225.261719 208.785156 223.324219 205.894531 C 220.710938 201.9375 220.464844 197.03125 222.664062 192.070312 C 225.160156 186.375 230.949219 181.46875 236.691406 180.171875 C 237.25 180.042969 237.796875 179.972656 238.285156 179.972656 C 238.441406 180.488281 238.601562 181.023438 238.773438 181.582031 C 238.914062 182.042969 239.046875 182.476562 239.160156 182.890625 L 239.144531 182.890625 C 234.480469 182.890625 228.679688 187.136719 226.007812 192.484375"/><path fill="#E2E583" d="M 173.007812 181.863281 C 172.34375 182.527344 172.359375 182.769531 173.238281 184.859375 C 173.648438 185.839844 174.0625 187 174.15625 187.441406 C 174.515625 189.148438 176.335938 189.628906 176.894531 188.167969 C 177.195312 187.382812 177.058594 186.691406 176.148438 184.367188 C 175.050781 181.578125 174.070312 180.796875 173.007812 181.863281"/><path fill="#E2E583" d="M 237.824219 202.226562 C 238.683594 203.132812 239.847656 203.921875 240.566406 204.164062 C 240.410156 205.101562 240.207031 206.050781 239.992188 207 C 238.714844 206.582031 236.820312 205.417969 235.683594 204.28125 C 232.957031 201.550781 231.921875 197.78125 233.070312 194.730469 C 234.207031 191.710938 235.898438 190.113281 240.492188 187.925781 C 240.753906 189.078125 240.941406 190.097656 241.070312 191.132812 C 238.484375 192.429688 237.324219 193.394531 236.472656 194.800781 C 235.683594 196.082031 235.628906 196.328125 235.726562 197.753906 C 235.871094 199.605469 236.402344 200.730469 237.824219 202.226562"/><path fill="#E2E583" d="M 118.445312 197.054688 C 117.890625 197.421875 117.597656 198.34375 117.417969 200.28125 C 117.199219 202.632812 117.535156 203.746094 118.550781 203.992188 C 119.785156 204.292969 120.003906 203.875 120.25 200.722656 C 120.476562 197.855469 120.46875 197.792969 119.914062 197.339844 C 119.296875 196.828125 118.894531 196.753906 118.445312 197.054688"/><path fill="#E2E583" d="M 189.535156 200.097656 C 187.34375 200.695312 186.59375 201.585938 187.332031 202.710938 C 187.808594 203.433594 187.808594 203.433594 191.390625 202.691406 C 193.351562 202.28125 193.894531 201.933594 193.894531 201.082031 C 193.894531 199.761719 192.191406 199.375 189.535156 200.097656"/><path fill="#E2E583" d="M 207.09375 204.996094 C 206.476562 205.429688 206.363281 206.351562 206.847656 206.972656 C 207.023438 207.199219 207.792969 207.925781 208.539062 208.578125 C 210.085938 209.921875 210.949219 210.085938 211.566406 209.144531 C 211.925781 208.589844 211.929688 208.445312 211.597656 207.800781 C 211.167969 206.972656 208.964844 205.015625 208.175781 204.761719 C 207.875 204.664062 207.429688 204.757812 207.09375 204.996094"/><path fill="#E2E583" d="M 140.113281 206.273438 C 139.726562 206.871094 139.726562 206.972656 140.109375 207.566406 C 140.699219 208.472656 144.074219 210.300781 145.003906 210.214844 C 145.984375 210.128906 146.378906 209.507812 146.054688 208.574219 C 145.878906 208.0625 145.234375 207.53125 143.871094 206.75 C 141.597656 205.460938 140.71875 205.347656 140.113281 206.273438"/><g clip-path="url(#c)"><path fill="#E2E583" d="M 207.230469 235.597656 C 206.179688 237.828125 203.152344 240.863281 200.824219 242.011719 C 196.417969 244.1875 190.902344 244.011719 187.371094 241.566406 C 183.164062 238.675781 180.722656 233.453125 181.46875 228.949219 C 182.117188 225.113281 184.253906 222.390625 188.0625 220.609375 C 190.875 219.285156 192.109375 219.082031 192.84375 219.820312 C 193.128906 220.105469 193.371094 220.609375 193.371094 220.925781 C 193.371094 221.601562 192.683594 222.40625 192.109375 222.421875 C 191.363281 222.449219 188.246094 223.917969 187.183594 224.75 C 186.609375 225.210938 185.851562 226.105469 185.449219 226.777344 C 184.800781 227.871094 184.742188 228.203125 184.742188 230.5625 C 184.742188 232.835938 184.816406 233.324219 185.417969 234.617188 C 186.292969 236.476562 188.074219 238.390625 189.8125 239.351562 C 191.03125 240.015625 191.492188 240.097656 193.890625 240.203125 C 196.960938 240.316406 198.527344 239.898438 200.78125 238.34375 C 203.941406 236.175781 205.460938 233.007812 205.679688 228.230469 C 205.890625 223.328125 204.746094 220.121094 201.628906 217 C 198.082031 213.445312 194.460938 211.820312 189.640625 211.632812 C 187.210938 211.53125 186.496094 211.605469 184.714844 212.136719 C 181.671875 213.042969 178.914062 214.710938 176.632812 217.027344 C 171.808594 221.902344 169.554688 228.722656 169.554688 238.445312 C 169.554688 242.878906 169.925781 245.175781 171.25 248.972656 C 172.667969 253.0625 174.992188 256.773438 177.75 259.535156 C 176.429688 259.535156 175.054688 259.503906 173.703125 259.476562 C 172.195312 257.707031 170.859375 255.75 169.855469 253.78125 C 167.542969 249.25 166.582031 245.363281 166.378906 239.59375 C 166.007812 228.949219 168.75 220.507812 174.433594 214.796875 C 177.738281 211.488281 181.542969 209.417969 185.792969 208.613281 C 190.832031 207.660156 197.035156 209.203125 201.3125 212.453125 C 204.988281 215.226562 207.816406 219.457031 208.621094 223.328125 C 209.398438 227.050781 208.808594 232.21875 207.230469 235.597656"/></g><path fill="#E2E583" d="M 215.289062 216.867188 C 214.835938 217.417969 214.890625 218.03125 215.65625 220.949219 C 216.523438 224.257812 216.660156 224.488281 217.769531 224.488281 C 219.164062 224.488281 219.351562 223.660156 218.636719 220.667969 C 218.316406 219.320312 217.8125 217.882812 217.511719 217.4375 C 216.878906 216.507812 215.816406 216.234375 215.289062 216.867188"/><path fill="#E2E583" d="M 126.34375 218.804688 C 125.808594 219.808594 126.386719 220.789062 128.5 222.476562 C 129.816406 223.523438 130.703125 223.699219 131.351562 223.042969 C 132.089844 222.292969 131.800781 221.625 129.996094 219.9375 C 128.628906 218.652344 128.097656 218.3125 127.445312 218.300781 C 126.878906 218.292969 126.535156 218.449219 126.34375 218.804688"/><path fill="#E2E583" d="M 139.25 227.046875 C 138.480469 228.488281 139.253906 229.042969 143.277344 229.949219 C 145.082031 230.355469 146.773438 230.6875 147.015625 230.6875 C 147.636719 230.6875 148.335938 229.554688 148.128906 228.878906 C 147.890625 228.113281 146.886719 227.683594 143.945312 227.085938 C 140.617188 226.410156 139.597656 226.398438 139.25 227.046875"/><path fill="#E2E583" d="M 128.253906 235.441406 C 127.675781 236.335938 127.960938 236.996094 129.328125 237.933594 C 131.3125 239.300781 133.152344 240.03125 133.890625 239.746094 C 134.664062 239.449219 134.988281 238.664062 134.621094 237.976562 C 134.308594 237.390625 129.867188 234.824219 129.171875 234.824219 C 128.894531 234.824219 128.472656 235.105469 128.253906 235.441406"/><path fill="#E2E583" d="M 144.207031 241.4375 C 143.59375 242.371094 144.046875 243.285156 145.210938 243.464844 C 147.195312 243.765625 149.585938 243.839844 150.160156 243.617188 C 150.910156 243.328125 151.222656 242.515625 150.855469 241.824219 C 150.464844 241.09375 149.207031 240.765625 146.808594 240.765625 C 144.773438 240.765625 144.617188 240.804688 144.207031 241.4375"/><path fill="#E2E583" d="M 178.707031 245.835938 C 177.902344 246.394531 177.992188 247.6875 178.925781 248.980469 C 179.523438 249.808594 179.882812 250.0625 180.433594 250.0625 C 181.949219 250.0625 182.191406 248.800781 181.023438 246.941406 C 180.195312 245.621094 179.5 245.289062 178.707031 245.835938"/></svg>